%TF.GenerationSoftware,KiCad,Pcbnew,9.0.3+dfsg-1*%
%TF.CreationDate,2026-03-02T08:57:10+01:00*%
%TF.ProjectId,summix-pcb,73756d6d-6978-42d7-9063-622e6b696361,rev?*%
%TF.SameCoordinates,Original*%
%TF.FileFunction,Profile,NP*%
%FSLAX46Y46*%
G04 Gerber Fmt 4.6, Leading zero omitted, Abs format (unit mm)*
G04 Created by KiCad (PCBNEW 9.0.3+dfsg-1) date 2026-03-02 08:57:10*
%MOMM*%
%LPD*%
G01*
G04 APERTURE LIST*
%TA.AperFunction,Profile*%
%ADD10C,0.050000*%
%TD*%
%ADD11C,0.150000*%
G04 APERTURE END LIST*
D10*
X129500000Y-63000000D02*
X132000000Y-63000000D01*
X132000000Y-91500000D01*
X129500000Y-91500000D01*
X129500000Y-63000000D01*
X129500000Y-63000000D02*
X131000000Y-63000000D01*
X129500000Y-63000000D01*
X129500000Y-135250000D02*
X132000000Y-135250000D01*
X132000000Y-163750000D01*
X129500000Y-163750000D01*
X129500000Y-135250000D01*
X159500000Y-170000000D02*
X101000000Y-170000000D01*
X101000000Y-58000000D01*
X159500000Y-58000000D01*
X159500000Y-170000000D01*
X129500000Y-99750000D02*
X132000000Y-99750000D01*
X132000000Y-128250000D01*
X129500000Y-128250000D01*
X129500000Y-99750000D01*
D11*
X115690476Y-54204819D02*
X116309523Y-54204819D01*
X116309523Y-54204819D02*
X115976190Y-54585771D01*
X115976190Y-54585771D02*
X116119047Y-54585771D01*
X116119047Y-54585771D02*
X116214285Y-54633390D01*
X116214285Y-54633390D02*
X116261904Y-54681009D01*
X116261904Y-54681009D02*
X116309523Y-54776247D01*
X116309523Y-54776247D02*
X116309523Y-55014342D01*
X116309523Y-55014342D02*
X116261904Y-55109580D01*
X116261904Y-55109580D02*
X116214285Y-55157200D01*
X116214285Y-55157200D02*
X116119047Y-55204819D01*
X116119047Y-55204819D02*
X115833333Y-55204819D01*
X115833333Y-55204819D02*
X115738095Y-55157200D01*
X115738095Y-55157200D02*
X115690476Y-55109580D01*
X117261904Y-55204819D02*
X116690476Y-55204819D01*
X116976190Y-55204819D02*
X116976190Y-54204819D01*
X116976190Y-54204819D02*
X116880952Y-54347676D01*
X116880952Y-54347676D02*
X116785714Y-54442914D01*
X116785714Y-54442914D02*
X116690476Y-54490533D01*
D10*
X101000000Y-57500000D02*
X101000000Y-55313580D01*
X132000000Y-55313580D02*
X132000000Y-57500000D01*
X101000000Y-55900000D02*
X132000000Y-55900000D01*
X101000000Y-55900000D02*
X102126504Y-55313579D01*
X101000000Y-55900000D02*
X102126504Y-56486421D01*
X132000000Y-55900000D02*
X130873496Y-56486421D01*
X132000000Y-55900000D02*
X130873496Y-55313579D01*
M02*
