%TF.GenerationSoftware,KiCad,Pcbnew,9.0.3+dfsg-1*%
%TF.CreationDate,2026-03-02T08:57:08+01:00*%
%TF.ProjectId,summix-pcb,73756d6d-6978-42d7-9063-622e6b696361,rev?*%
%TF.SameCoordinates,Original*%
%TF.FileFunction,Copper,L1,Top*%
%TF.FilePolarity,Positive*%
%FSLAX46Y46*%
G04 Gerber Fmt 4.6, Leading zero omitted, Abs format (unit mm)*
G04 Created by KiCad (PCBNEW 9.0.3+dfsg-1) date 2026-03-02 08:57:08*
%MOMM*%
%LPD*%
G01*
G04 APERTURE LIST*
G04 Aperture macros list*
%AMRoundRect*
0 Rectangle with rounded corners*
0 $1 Rounding radius*
0 $2 $3 $4 $5 $6 $7 $8 $9 X,Y pos of 4 corners*
0 Add a 4 corners polygon primitive as box body*
4,1,4,$2,$3,$4,$5,$6,$7,$8,$9,$2,$3,0*
0 Add four circle primitives for the rounded corners*
1,1,$1+$1,$2,$3*
1,1,$1+$1,$4,$5*
1,1,$1+$1,$6,$7*
1,1,$1+$1,$8,$9*
0 Add four rect primitives between the rounded corners*
20,1,$1+$1,$2,$3,$4,$5,0*
20,1,$1+$1,$4,$5,$6,$7,0*
20,1,$1+$1,$6,$7,$8,$9,0*
20,1,$1+$1,$8,$9,$2,$3,0*%
G04 Aperture macros list end*
%TA.AperFunction,SMDPad,CuDef*%
%ADD10RoundRect,0.250000X0.450000X-0.350000X0.450000X0.350000X-0.450000X0.350000X-0.450000X-0.350000X0*%
%TD*%
%TA.AperFunction,SMDPad,CuDef*%
%ADD11RoundRect,0.250000X-0.450000X0.350000X-0.450000X-0.350000X0.450000X-0.350000X0.450000X0.350000X0*%
%TD*%
%TA.AperFunction,ComponentPad*%
%ADD12R,1.930000X1.830000*%
%TD*%
%TA.AperFunction,ComponentPad*%
%ADD13C,2.130000*%
%TD*%
%TA.AperFunction,SMDPad,CuDef*%
%ADD14RoundRect,0.150000X-0.825000X-0.150000X0.825000X-0.150000X0.825000X0.150000X-0.825000X0.150000X0*%
%TD*%
%TA.AperFunction,SMDPad,CuDef*%
%ADD15RoundRect,0.250000X0.337500X0.475000X-0.337500X0.475000X-0.337500X-0.475000X0.337500X-0.475000X0*%
%TD*%
%TA.AperFunction,ComponentPad*%
%ADD16R,1.700000X1.700000*%
%TD*%
%TA.AperFunction,ComponentPad*%
%ADD17C,1.700000*%
%TD*%
%TA.AperFunction,SMDPad,CuDef*%
%ADD18RoundRect,0.250000X-0.475000X0.337500X-0.475000X-0.337500X0.475000X-0.337500X0.475000X0.337500X0*%
%TD*%
%TA.AperFunction,SMDPad,CuDef*%
%ADD19RoundRect,0.250000X0.475000X-0.337500X0.475000X0.337500X-0.475000X0.337500X-0.475000X-0.337500X0*%
%TD*%
%TA.AperFunction,ComponentPad*%
%ADD20RoundRect,0.250000X-0.600000X0.600000X-0.600000X-0.600000X0.600000X-0.600000X0.600000X0.600000X0*%
%TD*%
%TA.AperFunction,ViaPad*%
%ADD21C,0.800000*%
%TD*%
%TA.AperFunction,ViaPad*%
%ADD22C,0.600000*%
%TD*%
%TA.AperFunction,Conductor*%
%ADD23C,0.200000*%
%TD*%
%TA.AperFunction,Conductor*%
%ADD24C,0.400000*%
%TD*%
G04 APERTURE END LIST*
D10*
%TO.P,R23,1*%
%TO.N,Net-(U3A--)*%
X138500000Y-153500000D03*
%TO.P,R23,2*%
%TO.N,Net-(C11-Pad2)*%
X138500000Y-151500000D03*
%TD*%
D11*
%TO.P,R20,1*%
%TO.N,BE_IN_C_2*%
X139500000Y-144000000D03*
%TO.P,R20,2*%
%TO.N,Net-(U3A--)*%
X139500000Y-146000000D03*
%TD*%
D12*
%TO.P,J12,S*%
%TO.N,GND*%
X115250000Y-117400000D03*
D13*
%TO.P,J12,T*%
%TO.N,UI_OUT_B_1*%
X115250000Y-128800000D03*
%TO.P,J12,TN*%
%TO.N,GND*%
X115250000Y-120500000D03*
%TD*%
D14*
%TO.P,U3,1*%
%TO.N,Net-(C11-Pad2)*%
X146050000Y-152630000D03*
%TO.P,U3,2,-*%
%TO.N,Net-(U3A--)*%
X146050000Y-153900000D03*
%TO.P,U3,3,+*%
%TO.N,GND*%
X146050000Y-155170000D03*
%TO.P,U3,4,V+*%
%TO.N,+12V*%
X146050000Y-156440000D03*
%TO.P,U3,5,+*%
%TO.N,GND*%
X146050000Y-157710000D03*
%TO.P,U3,6,-*%
%TO.N,Net-(U3B--)*%
X146050000Y-158980000D03*
%TO.P,U3,7*%
%TO.N,Net-(U3C-+)*%
X146050000Y-160250000D03*
%TO.P,U3,8*%
%TO.N,Net-(U3C--)*%
X151000000Y-160250000D03*
%TO.P,U3,9,-*%
X151000000Y-158980000D03*
%TO.P,U3,10,+*%
%TO.N,Net-(U3C-+)*%
X151000000Y-157710000D03*
%TO.P,U3,11,V-*%
%TO.N,-12V*%
X151000000Y-156440000D03*
%TO.P,U3,12,+*%
%TO.N,Net-(U3C-+)*%
X151000000Y-155170000D03*
%TO.P,U3,13,-*%
%TO.N,Net-(U3D--)*%
X151000000Y-153900000D03*
%TO.P,U3,14*%
X151000000Y-152630000D03*
%TD*%
D11*
%TO.P,R24,1*%
%TO.N,Net-(C11-Pad2)*%
X135650000Y-151450000D03*
%TO.P,R24,2*%
%TO.N,Net-(U3B--)*%
X135650000Y-153450000D03*
%TD*%
D15*
%TO.P,C13,1*%
%TO.N,+12V*%
X141537500Y-156445000D03*
%TO.P,C13,2*%
%TO.N,GND*%
X139462500Y-156445000D03*
%TD*%
D10*
%TO.P,R27,1*%
%TO.N,Net-(U3D--)*%
X156200000Y-146000000D03*
%TO.P,R27,2*%
%TO.N,BE_OUT_C_2*%
X156200000Y-144000000D03*
%TD*%
D16*
%TO.P,J15,1,Pin_1*%
%TO.N,GND*%
X106500000Y-99460000D03*
D17*
%TO.P,J15,2,Pin_2*%
%TO.N,UI_IN_B_1*%
X109040000Y-99460000D03*
%TO.P,J15,3,Pin_3*%
%TO.N,UI_IN_B_2*%
X111580000Y-99460000D03*
%TO.P,J15,4,Pin_4*%
%TO.N,UI_IN_B_3*%
X114120000Y-99460000D03*
%TO.P,J15,5,Pin_5*%
%TO.N,UI_IN_B_4*%
X116660000Y-99460000D03*
%TO.P,J15,6,Pin_6*%
%TO.N,UI_OUT_B_1*%
X119200000Y-99460000D03*
%TO.P,J15,7,Pin_7*%
%TO.N,UI_OUT_B_2*%
X121740000Y-99460000D03*
%TO.P,J15,8,Pin_8*%
%TO.N,GND*%
X124280000Y-99460000D03*
%TD*%
D18*
%TO.P,C12,1*%
%TO.N,Net-(U3B--)*%
X141750000Y-159962500D03*
%TO.P,C12,2*%
%TO.N,Net-(U3C-+)*%
X141750000Y-162037500D03*
%TD*%
D12*
%TO.P,J20,S*%
%TO.N,GND*%
X105750000Y-156117500D03*
D13*
%TO.P,J20,T*%
%TO.N,UI_IN_C_4*%
X105750000Y-167517500D03*
%TO.P,J20,TN*%
%TO.N,GND*%
X105750000Y-159217500D03*
%TD*%
D19*
%TO.P,C4,1*%
%TO.N,GND*%
X155500000Y-75537500D03*
%TO.P,C4,2*%
%TO.N,-12V*%
X155500000Y-73462500D03*
%TD*%
D11*
%TO.P,R18,1*%
%TO.N,BE_IN_B_4*%
X148000000Y-102750000D03*
%TO.P,R18,2*%
%TO.N,Net-(U2A--)*%
X148000000Y-104750000D03*
%TD*%
D12*
%TO.P,J14,S*%
%TO.N,GND*%
X105750000Y-117400000D03*
D13*
%TO.P,J14,T*%
%TO.N,UI_IN_B_4*%
X105750000Y-128800000D03*
%TO.P,J14,TN*%
%TO.N,GND*%
X105750000Y-120500000D03*
%TD*%
D12*
%TO.P,J6,S*%
%TO.N,GND*%
X105750000Y-78880000D03*
D13*
%TO.P,J6,T*%
%TO.N,UI_IN_A_4*%
X105750000Y-90280000D03*
%TO.P,J6,TN*%
%TO.N,GND*%
X105750000Y-81980000D03*
%TD*%
D10*
%TO.P,R4,1*%
%TO.N,Net-(U1A--)*%
X139000000Y-71712500D03*
%TO.P,R4,2*%
%TO.N,Net-(C1-Pad2)*%
X139000000Y-69712500D03*
%TD*%
D12*
%TO.P,J17,S*%
%TO.N,GND*%
X105750000Y-141617500D03*
D13*
%TO.P,J17,T*%
%TO.N,UI_IN_C_1*%
X105750000Y-153017500D03*
%TO.P,J17,TN*%
%TO.N,GND*%
X105750000Y-144717500D03*
%TD*%
D18*
%TO.P,C14,1*%
%TO.N,GND*%
X155432500Y-154407500D03*
%TO.P,C14,2*%
%TO.N,-12V*%
X155432500Y-156482500D03*
%TD*%
D12*
%TO.P,J18,S*%
%TO.N,GND*%
X115250000Y-141617500D03*
D13*
%TO.P,J18,T*%
%TO.N,UI_IN_C_2*%
X115250000Y-153017500D03*
%TO.P,J18,TN*%
%TO.N,GND*%
X115250000Y-144717500D03*
%TD*%
D12*
%TO.P,J21,S*%
%TO.N,GND*%
X115250000Y-156117500D03*
D13*
%TO.P,J21,T*%
%TO.N,UI_OUT_C_1*%
X115250000Y-167517500D03*
%TO.P,J21,TN*%
%TO.N,GND*%
X115250000Y-159217500D03*
%TD*%
D12*
%TO.P,J1,S*%
%TO.N,GND*%
X105750000Y-64400000D03*
D13*
%TO.P,J1,T*%
%TO.N,UI_IN_A_1*%
X105750000Y-75800000D03*
%TO.P,J1,TN*%
%TO.N,GND*%
X105750000Y-67500000D03*
%TD*%
D12*
%TO.P,J10,S*%
%TO.N,GND*%
X115250000Y-102880000D03*
D13*
%TO.P,J10,T*%
%TO.N,UI_IN_B_2*%
X115250000Y-114280000D03*
%TO.P,J10,TN*%
%TO.N,GND*%
X115250000Y-105980000D03*
%TD*%
D16*
%TO.P,J24,1,Pin_1*%
%TO.N,GND*%
X137500000Y-138017500D03*
D17*
%TO.P,J24,2,Pin_2*%
%TO.N,BE_IN_C_1*%
X140040000Y-138017500D03*
%TO.P,J24,3,Pin_3*%
%TO.N,BE_IN_C_2*%
X142580000Y-138017500D03*
%TO.P,J24,4,Pin_4*%
%TO.N,BE_IN_C_3*%
X145120000Y-138017500D03*
%TO.P,J24,5,Pin_5*%
%TO.N,BE_IN_C_4*%
X147660000Y-138017500D03*
%TO.P,J24,6,Pin_6*%
%TO.N,BE_OUT_C_1*%
X150200000Y-138017500D03*
%TO.P,J24,7,Pin_7*%
%TO.N,BE_OUT_C_2*%
X152740000Y-138017500D03*
%TO.P,J24,8,Pin_8*%
%TO.N,GND*%
X155280000Y-138017500D03*
%TD*%
D16*
%TO.P,J7,1,Pin_1*%
%TO.N,GND*%
X106500000Y-61000000D03*
D17*
%TO.P,J7,2,Pin_2*%
%TO.N,UI_IN_A_1*%
X109040000Y-61000000D03*
%TO.P,J7,3,Pin_3*%
%TO.N,UI_IN_A_2*%
X111580000Y-61000000D03*
%TO.P,J7,4,Pin_4*%
%TO.N,UI_IN_A_3*%
X114120000Y-61000000D03*
%TO.P,J7,5,Pin_5*%
%TO.N,UI_IN_A_4*%
X116660000Y-61000000D03*
%TO.P,J7,6,Pin_6*%
%TO.N,UI_OUT_A_1*%
X119200000Y-61000000D03*
%TO.P,J7,7,Pin_7*%
%TO.N,UI_OUT_A_2*%
X121740000Y-61000000D03*
%TO.P,J7,8,Pin_8*%
%TO.N,GND*%
X124280000Y-61000000D03*
%TD*%
D10*
%TO.P,R7,1*%
%TO.N,Net-(U1C--)*%
X152750000Y-67000000D03*
%TO.P,R7,2*%
%TO.N,BE_OUT_A_1*%
X152750000Y-65000000D03*
%TD*%
D12*
%TO.P,J13,S*%
%TO.N,GND*%
X124750000Y-117400000D03*
D13*
%TO.P,J13,T*%
%TO.N,UI_OUT_B_2*%
X124750000Y-128800000D03*
%TO.P,J13,TN*%
%TO.N,GND*%
X124750000Y-120500000D03*
%TD*%
D18*
%TO.P,C2,1*%
%TO.N,Net-(U1B--)*%
X138750000Y-78462500D03*
%TO.P,C2,2*%
%TO.N,Net-(U1C-+)*%
X138750000Y-80537500D03*
%TD*%
D11*
%TO.P,R1,1*%
%TO.N,BE_IN_A_1*%
X138750000Y-65000000D03*
%TO.P,R1,2*%
%TO.N,Net-(U1A--)*%
X138750000Y-67000000D03*
%TD*%
D15*
%TO.P,C3,1*%
%TO.N,+12V*%
X142037500Y-75000000D03*
%TO.P,C3,2*%
%TO.N,GND*%
X139962500Y-75000000D03*
%TD*%
D10*
%TO.P,R17,1*%
%TO.N,Net-(U2D--)*%
X155250000Y-104750000D03*
%TO.P,R17,2*%
%TO.N,BE_OUT_B_2*%
X155250000Y-102750000D03*
%TD*%
D11*
%TO.P,R15,1*%
%TO.N,Net-(U2B--)*%
X139500000Y-115750000D03*
%TO.P,R15,2*%
%TO.N,Net-(U2C-+)*%
X139500000Y-117750000D03*
%TD*%
D16*
%TO.P,J8,1,Pin_1*%
%TO.N,GND*%
X137500000Y-61000000D03*
D17*
%TO.P,J8,2,Pin_2*%
%TO.N,BE_IN_A_1*%
X140040000Y-61000000D03*
%TO.P,J8,3,Pin_3*%
%TO.N,BE_IN_A_2*%
X142580000Y-61000000D03*
%TO.P,J8,4,Pin_4*%
%TO.N,BE_IN_A_3*%
X145120000Y-61000000D03*
%TO.P,J8,5,Pin_5*%
%TO.N,BE_IN_A_4*%
X147660000Y-61000000D03*
%TO.P,J8,6,Pin_6*%
%TO.N,BE_OUT_A_1*%
X150200000Y-61000000D03*
%TO.P,J8,7,Pin_7*%
%TO.N,BE_OUT_A_2*%
X152740000Y-61000000D03*
%TO.P,J8,8,Pin_8*%
%TO.N,GND*%
X155280000Y-61000000D03*
%TD*%
D12*
%TO.P,J4,S*%
%TO.N,GND*%
X115250000Y-78880000D03*
D13*
%TO.P,J4,T*%
%TO.N,UI_OUT_A_1*%
X115250000Y-90280000D03*
%TO.P,J4,TN*%
%TO.N,GND*%
X115250000Y-81980000D03*
%TD*%
D19*
%TO.P,C10,1*%
%TO.N,GND*%
X157000000Y-112787500D03*
%TO.P,C10,2*%
%TO.N,-12V*%
X157000000Y-110712500D03*
%TD*%
D18*
%TO.P,C8,1*%
%TO.N,Net-(U2B--)*%
X143500000Y-115675000D03*
%TO.P,C8,2*%
%TO.N,Net-(U2C-+)*%
X143500000Y-117750000D03*
%TD*%
D15*
%TO.P,C9,1*%
%TO.N,+12V*%
X143287500Y-112250000D03*
%TO.P,C9,2*%
%TO.N,GND*%
X141212500Y-112250000D03*
%TD*%
D11*
%TO.P,R25,1*%
%TO.N,Net-(U3B--)*%
X138000000Y-160000000D03*
%TO.P,R25,2*%
%TO.N,Net-(U3C-+)*%
X138000000Y-162000000D03*
%TD*%
%TO.P,R12,1*%
%TO.N,BE_IN_B_3*%
X144500000Y-102750000D03*
%TO.P,R12,2*%
%TO.N,Net-(U2A--)*%
X144500000Y-104750000D03*
%TD*%
D19*
%TO.P,C7,1*%
%TO.N,Net-(U2A--)*%
X140750000Y-109037500D03*
%TO.P,C7,2*%
%TO.N,Net-(C7-Pad2)*%
X140750000Y-106962500D03*
%TD*%
D11*
%TO.P,R22,1*%
%TO.N,BE_IN_C_4*%
X147500000Y-144000000D03*
%TO.P,R22,2*%
%TO.N,Net-(U3A--)*%
X147500000Y-146000000D03*
%TD*%
D19*
%TO.P,C11,1*%
%TO.N,Net-(U3A--)*%
X141500000Y-153500000D03*
%TO.P,C11,2*%
%TO.N,Net-(C11-Pad2)*%
X141500000Y-151425000D03*
%TD*%
D11*
%TO.P,R11,1*%
%TO.N,BE_IN_B_2*%
X141000000Y-102750000D03*
%TO.P,R11,2*%
%TO.N,Net-(U2A--)*%
X141000000Y-104750000D03*
%TD*%
D10*
%TO.P,R26,1*%
%TO.N,Net-(U3C--)*%
X152000000Y-146000000D03*
%TO.P,R26,2*%
%TO.N,BE_OUT_C_1*%
X152000000Y-144000000D03*
%TD*%
%TO.P,R13,1*%
%TO.N,Net-(U2A--)*%
X144500000Y-108925000D03*
%TO.P,R13,2*%
%TO.N,Net-(C7-Pad2)*%
X144500000Y-106925000D03*
%TD*%
D16*
%TO.P,J16,1,Pin_1*%
%TO.N,GND*%
X137500000Y-99460000D03*
D17*
%TO.P,J16,2,Pin_2*%
%TO.N,BE_IN_B_1*%
X140040000Y-99460000D03*
%TO.P,J16,3,Pin_3*%
%TO.N,BE_IN_B_2*%
X142580000Y-99460000D03*
%TO.P,J16,4,Pin_4*%
%TO.N,BE_IN_B_3*%
X145120000Y-99460000D03*
%TO.P,J16,5,Pin_5*%
%TO.N,BE_IN_B_4*%
X147660000Y-99460000D03*
%TO.P,J16,6,Pin_6*%
%TO.N,BE_OUT_B_1*%
X150200000Y-99460000D03*
%TO.P,J16,7,Pin_7*%
%TO.N,BE_OUT_B_2*%
X152740000Y-99460000D03*
%TO.P,J16,8,Pin_8*%
%TO.N,GND*%
X155280000Y-99460000D03*
%TD*%
D11*
%TO.P,R21,1*%
%TO.N,BE_IN_C_3*%
X143150000Y-144000000D03*
%TO.P,R21,2*%
%TO.N,Net-(U3A--)*%
X143150000Y-146000000D03*
%TD*%
D12*
%TO.P,J11,S*%
%TO.N,GND*%
X124750000Y-102880000D03*
D13*
%TO.P,J11,T*%
%TO.N,UI_IN_B_3*%
X124750000Y-114280000D03*
%TO.P,J11,TN*%
%TO.N,GND*%
X124750000Y-105980000D03*
%TD*%
D10*
%TO.P,R8,1*%
%TO.N,Net-(U1D--)*%
X156250000Y-67000000D03*
%TO.P,R8,2*%
%TO.N,BE_OUT_A_2*%
X156250000Y-65000000D03*
%TD*%
D11*
%TO.P,R14,1*%
%TO.N,Net-(C7-Pad2)*%
X137000000Y-107000000D03*
%TO.P,R14,2*%
%TO.N,Net-(U2B--)*%
X137000000Y-109000000D03*
%TD*%
%TO.P,R5,1*%
%TO.N,Net-(U1B--)*%
X142500000Y-78500000D03*
%TO.P,R5,2*%
%TO.N,Net-(U1C-+)*%
X142500000Y-80500000D03*
%TD*%
D12*
%TO.P,J19,S*%
%TO.N,GND*%
X124750000Y-141617500D03*
D13*
%TO.P,J19,T*%
%TO.N,UI_IN_C_3*%
X124750000Y-153017500D03*
%TO.P,J19,TN*%
%TO.N,GND*%
X124750000Y-144717500D03*
%TD*%
D12*
%TO.P,J22,S*%
%TO.N,GND*%
X124750000Y-156117500D03*
D13*
%TO.P,J22,T*%
%TO.N,UI_OUT_C_2*%
X124750000Y-167517500D03*
%TO.P,J22,TN*%
%TO.N,GND*%
X124750000Y-159217500D03*
%TD*%
D12*
%TO.P,J3,S*%
%TO.N,GND*%
X124750000Y-64400000D03*
D13*
%TO.P,J3,T*%
%TO.N,UI_IN_A_3*%
X124750000Y-75800000D03*
%TO.P,J3,TN*%
%TO.N,GND*%
X124750000Y-67500000D03*
%TD*%
D12*
%TO.P,J9,S*%
%TO.N,GND*%
X105750000Y-102880000D03*
D13*
%TO.P,J9,T*%
%TO.N,UI_IN_B_1*%
X105750000Y-114280000D03*
%TO.P,J9,TN*%
%TO.N,GND*%
X105750000Y-105980000D03*
%TD*%
D11*
%TO.P,R6,1*%
%TO.N,Net-(C1-Pad2)*%
X135500000Y-69712500D03*
%TO.P,R6,2*%
%TO.N,Net-(U1B--)*%
X135500000Y-71712500D03*
%TD*%
%TO.P,R10,1*%
%TO.N,BE_IN_B_1*%
X137500000Y-102750000D03*
%TO.P,R10,2*%
%TO.N,Net-(U2A--)*%
X137500000Y-104750000D03*
%TD*%
D12*
%TO.P,J2,S*%
%TO.N,GND*%
X115250000Y-64400000D03*
D13*
%TO.P,J2,T*%
%TO.N,UI_IN_A_2*%
X115250000Y-75800000D03*
%TO.P,J2,TN*%
%TO.N,GND*%
X115250000Y-67500000D03*
%TD*%
D11*
%TO.P,R9,1*%
%TO.N,BE_IN_A_4*%
X149250000Y-65000000D03*
%TO.P,R9,2*%
%TO.N,Net-(U1A--)*%
X149250000Y-67000000D03*
%TD*%
%TO.P,R2,1*%
%TO.N,BE_IN_A_2*%
X142250000Y-65000000D03*
%TO.P,R2,2*%
%TO.N,Net-(U1A--)*%
X142250000Y-67000000D03*
%TD*%
D14*
%TO.P,U2,1*%
%TO.N,Net-(C7-Pad2)*%
X147775000Y-108440000D03*
%TO.P,U2,2,-*%
%TO.N,Net-(U2A--)*%
X147775000Y-109710000D03*
%TO.P,U2,3,+*%
%TO.N,GND*%
X147775000Y-110980000D03*
%TO.P,U2,4,V+*%
%TO.N,+12V*%
X147775000Y-112250000D03*
%TO.P,U2,5,+*%
%TO.N,GND*%
X147775000Y-113520000D03*
%TO.P,U2,6,-*%
%TO.N,Net-(U2B--)*%
X147775000Y-114790000D03*
%TO.P,U2,7*%
%TO.N,Net-(U2C-+)*%
X147775000Y-116060000D03*
%TO.P,U2,8*%
%TO.N,Net-(U2C--)*%
X152725000Y-116060000D03*
%TO.P,U2,9,-*%
X152725000Y-114790000D03*
%TO.P,U2,10,+*%
%TO.N,Net-(U2C-+)*%
X152725000Y-113520000D03*
%TO.P,U2,11,V-*%
%TO.N,-12V*%
X152725000Y-112250000D03*
%TO.P,U2,12,+*%
%TO.N,Net-(U2C-+)*%
X152725000Y-110980000D03*
%TO.P,U2,13,-*%
%TO.N,Net-(U2D--)*%
X152725000Y-109710000D03*
%TO.P,U2,14*%
X152725000Y-108440000D03*
%TD*%
%TO.P,U1,1*%
%TO.N,Net-(C1-Pad2)*%
X146275000Y-71190000D03*
%TO.P,U1,2,-*%
%TO.N,Net-(U1A--)*%
X146275000Y-72460000D03*
%TO.P,U1,3,+*%
%TO.N,GND*%
X146275000Y-73730000D03*
%TO.P,U1,4,V+*%
%TO.N,+12V*%
X146275000Y-75000000D03*
%TO.P,U1,5,+*%
%TO.N,GND*%
X146275000Y-76270000D03*
%TO.P,U1,6,-*%
%TO.N,Net-(U1B--)*%
X146275000Y-77540000D03*
%TO.P,U1,7*%
%TO.N,Net-(U1C-+)*%
X146275000Y-78810000D03*
%TO.P,U1,8*%
%TO.N,Net-(U1C--)*%
X151225000Y-78810000D03*
%TO.P,U1,9,-*%
X151225000Y-77540000D03*
%TO.P,U1,10,+*%
%TO.N,Net-(U1C-+)*%
X151225000Y-76270000D03*
%TO.P,U1,11,V-*%
%TO.N,-12V*%
X151225000Y-75000000D03*
%TO.P,U1,12,+*%
%TO.N,Net-(U1C-+)*%
X151225000Y-73730000D03*
%TO.P,U1,13,-*%
%TO.N,Net-(U1D--)*%
X151225000Y-72460000D03*
%TO.P,U1,14*%
X151225000Y-71190000D03*
%TD*%
D12*
%TO.P,J5,S*%
%TO.N,GND*%
X124750000Y-78880000D03*
D13*
%TO.P,J5,T*%
%TO.N,UI_OUT_A_2*%
X124750000Y-90280000D03*
%TO.P,J5,TN*%
%TO.N,GND*%
X124750000Y-81980000D03*
%TD*%
D11*
%TO.P,R19,1*%
%TO.N,BE_IN_C_1*%
X136100000Y-144150000D03*
%TO.P,R19,2*%
%TO.N,Net-(U3A--)*%
X136100000Y-146150000D03*
%TD*%
%TO.P,R3,1*%
%TO.N,BE_IN_A_3*%
X145750000Y-65000000D03*
%TO.P,R3,2*%
%TO.N,Net-(U1A--)*%
X145750000Y-67000000D03*
%TD*%
D16*
%TO.P,J23,1,Pin_1*%
%TO.N,GND*%
X106500000Y-138017500D03*
D17*
%TO.P,J23,2,Pin_2*%
%TO.N,UI_IN_C_1*%
X109040000Y-138017500D03*
%TO.P,J23,3,Pin_3*%
%TO.N,UI_IN_C_2*%
X111580000Y-138017500D03*
%TO.P,J23,4,Pin_4*%
%TO.N,UI_IN_C_3*%
X114120000Y-138017500D03*
%TO.P,J23,5,Pin_5*%
%TO.N,UI_IN_C_4*%
X116660000Y-138017500D03*
%TO.P,J23,6,Pin_6*%
%TO.N,UI_OUT_C_1*%
X119200000Y-138017500D03*
%TO.P,J23,7,Pin_7*%
%TO.N,UI_OUT_C_2*%
X121740000Y-138017500D03*
%TO.P,J23,8,Pin_8*%
%TO.N,GND*%
X124280000Y-138017500D03*
%TD*%
D19*
%TO.P,C1,1*%
%TO.N,Net-(U1A--)*%
X142500000Y-71750000D03*
%TO.P,C1,2*%
%TO.N,Net-(C1-Pad2)*%
X142500000Y-69675000D03*
%TD*%
D10*
%TO.P,R16,1*%
%TO.N,Net-(U2C--)*%
X151250000Y-104750000D03*
%TO.P,R16,2*%
%TO.N,BE_OUT_B_1*%
X151250000Y-102750000D03*
%TD*%
D20*
%TO.P,J25,1,Pin_1*%
%TO.N,-12V*%
X141090000Y-129210000D03*
D17*
%TO.P,J25,2,Pin_2*%
X141090000Y-131750000D03*
%TO.P,J25,3,Pin_3*%
%TO.N,GND*%
X143630000Y-129210000D03*
%TO.P,J25,4,Pin_4*%
X143630000Y-131750000D03*
%TO.P,J25,5,Pin_5*%
X146170000Y-129210000D03*
%TO.P,J25,6,Pin_6*%
X146170000Y-131750000D03*
%TO.P,J25,7,Pin_7*%
X148710000Y-129210000D03*
%TO.P,J25,8,Pin_8*%
X148710000Y-131750000D03*
%TO.P,J25,9,Pin_9*%
%TO.N,+12V*%
X151250000Y-129210000D03*
%TO.P,J25,10,Pin_10*%
X151250000Y-131750000D03*
%TD*%
D21*
%TO.N,+12V*%
X148950000Y-81400000D03*
X148900000Y-79700000D03*
X148850000Y-159500000D03*
X150865686Y-116450000D03*
X148850000Y-162600000D03*
X146800000Y-121250000D03*
D22*
%TO.N,GND*%
X143540000Y-157710000D03*
D21*
X140250000Y-73500000D03*
X143000000Y-110500000D03*
X157250000Y-75500000D03*
D22*
X155500000Y-152500000D03*
D21*
X157000000Y-114500000D03*
%TO.N,-12V*%
X142550000Y-123450000D03*
%TD*%
D23*
%TO.N,Net-(U1A--)*%
X143750000Y-71750000D02*
X142500000Y-71750000D01*
X142250000Y-67000000D02*
X145750000Y-67000000D01*
X141500000Y-71750000D02*
X141462500Y-71712500D01*
X145750000Y-67250000D02*
X145750000Y-67000000D01*
X148000000Y-71750000D02*
X148000000Y-69500000D01*
X144460000Y-72460000D02*
X143750000Y-71750000D01*
X141462500Y-71712500D02*
X139000000Y-71712500D01*
X146275000Y-72460000D02*
X144460000Y-72460000D01*
X142500000Y-71750000D02*
X141500000Y-71750000D01*
X148000000Y-69500000D02*
X145750000Y-67250000D01*
X147290000Y-72460000D02*
X148000000Y-71750000D01*
X138750000Y-67000000D02*
X142250000Y-67000000D01*
X146275000Y-72460000D02*
X147290000Y-72460000D01*
X149250000Y-67000000D02*
X145750000Y-67000000D01*
%TO.N,Net-(C1-Pad2)*%
X144835000Y-69750000D02*
X144500000Y-69750000D01*
X142500000Y-69675000D02*
X139037500Y-69675000D01*
X139000000Y-69712500D02*
X135500000Y-69712500D01*
X144425000Y-69675000D02*
X142500000Y-69675000D01*
X139037500Y-69675000D02*
X139000000Y-69712500D01*
X146275000Y-71190000D02*
X144835000Y-69750000D01*
X144500000Y-69750000D02*
X144425000Y-69675000D01*
%TO.N,Net-(U1B--)*%
X143460000Y-77540000D02*
X146275000Y-77540000D01*
X137462500Y-78462500D02*
X138750000Y-78462500D01*
X138750000Y-78462500D02*
X142462500Y-78462500D01*
X135500000Y-71712500D02*
X135500000Y-76500000D01*
X142500000Y-78500000D02*
X143460000Y-77540000D01*
X142462500Y-78462500D02*
X142500000Y-78500000D01*
X135500000Y-76500000D02*
X137462500Y-78462500D01*
%TO.N,Net-(U1C-+)*%
X152270000Y-76270000D02*
X153250000Y-77250000D01*
X149500000Y-74250000D02*
X149500000Y-75500000D01*
X144835000Y-80250000D02*
X142750000Y-80250000D01*
X151225000Y-76270000D02*
X152270000Y-76270000D01*
X140750000Y-80500000D02*
X140712500Y-80537500D01*
X153250000Y-80000000D02*
X152750000Y-80500000D01*
X149500000Y-75500000D02*
X150270000Y-76270000D01*
X152750000Y-80500000D02*
X145085000Y-80500000D01*
X151225000Y-73730000D02*
X150020000Y-73730000D01*
X142750000Y-80250000D02*
X142500000Y-80500000D01*
X142500000Y-80500000D02*
X140750000Y-80500000D01*
X153250000Y-77250000D02*
X153250000Y-80000000D01*
X150020000Y-73730000D02*
X149500000Y-74250000D01*
X145085000Y-80500000D02*
X144835000Y-80250000D01*
X146275000Y-78810000D02*
X144835000Y-80250000D01*
X150270000Y-76270000D02*
X151225000Y-76270000D01*
X140712500Y-80537500D02*
X138750000Y-80537500D01*
D24*
%TO.N,+12V*%
X151250000Y-129210000D02*
X151250000Y-131750000D01*
X136050000Y-82700000D02*
X134150000Y-84600000D01*
X147650000Y-82700000D02*
X136050000Y-82700000D01*
X134150000Y-84600000D02*
X134150000Y-86500000D01*
X148400000Y-75600000D02*
X148400000Y-77950000D01*
X138050000Y-121250000D02*
X146800000Y-121250000D01*
X148950000Y-81400000D02*
X147650000Y-82700000D01*
X138600000Y-133900000D02*
X150350000Y-133900000D01*
X143287500Y-112250000D02*
X147775000Y-112250000D01*
X148400000Y-77950000D02*
X148900000Y-78450000D01*
X148900000Y-78450000D02*
X148900000Y-79700000D01*
X147290000Y-156440000D02*
X147948000Y-157098000D01*
X136550000Y-164450000D02*
X134050000Y-161950000D01*
X134050000Y-161950000D02*
X134050000Y-136750000D01*
X148850000Y-163150000D02*
X147550000Y-164450000D01*
X146050000Y-156440000D02*
X147290000Y-156440000D01*
X138050000Y-133350000D02*
X138600000Y-133900000D01*
X148691537Y-112250000D02*
X150845769Y-114404232D01*
X147948000Y-158598000D02*
X148850000Y-159500000D01*
X146275000Y-75000000D02*
X147800000Y-75000000D01*
X134150000Y-117350000D02*
X138050000Y-121250000D01*
X134050000Y-136750000D02*
X138050000Y-132750000D01*
X150865686Y-114424149D02*
X150865686Y-116450000D01*
X134150000Y-86500000D02*
X134150000Y-117350000D01*
X147775000Y-112250000D02*
X148691537Y-112250000D01*
X150350000Y-133900000D02*
X151250000Y-133000000D01*
X138050000Y-132750000D02*
X138050000Y-133350000D01*
X148850000Y-162600000D02*
X148850000Y-163150000D01*
X138050000Y-121250000D02*
X138050000Y-132750000D01*
X147800000Y-75000000D02*
X148400000Y-75600000D01*
X141542500Y-156440000D02*
X141537500Y-156445000D01*
X147948000Y-157098000D02*
X147948000Y-158598000D01*
X150845769Y-114404232D02*
X150865686Y-114424149D01*
X147550000Y-164450000D02*
X136550000Y-164450000D01*
X146050000Y-156440000D02*
X141542500Y-156440000D01*
X146275000Y-75000000D02*
X142037500Y-75000000D01*
X151250000Y-133000000D02*
X151250000Y-131750000D01*
%TO.N,GND*%
X143500000Y-76750000D02*
X140500000Y-76750000D01*
D23*
X143540000Y-157710000D02*
X140540000Y-157710000D01*
D24*
X157212500Y-75537500D02*
X157250000Y-75500000D01*
X141212500Y-113212500D02*
X141212500Y-112250000D01*
X155432500Y-154407500D02*
X155432500Y-152567500D01*
X139962500Y-76212500D02*
X139962500Y-75000000D01*
X157000000Y-114500000D02*
X157000000Y-112787500D01*
X143980000Y-76270000D02*
X143500000Y-76750000D01*
D23*
X139462500Y-156037500D02*
X140330000Y-155170000D01*
X143500000Y-157750000D02*
X143540000Y-157710000D01*
X139462500Y-156712500D02*
X139462500Y-156445000D01*
D24*
X140000000Y-73750000D02*
X140000000Y-74962500D01*
X147775000Y-113520000D02*
X145730000Y-113520000D01*
X155432500Y-152567500D02*
X155500000Y-152500000D01*
D23*
X139462500Y-156632500D02*
X139462500Y-156445000D01*
X140330000Y-155170000D02*
X146050000Y-155170000D01*
D24*
X146275000Y-73730000D02*
X144230000Y-73730000D01*
X146275000Y-76270000D02*
X143980000Y-76270000D01*
X144230000Y-73730000D02*
X144000000Y-73500000D01*
X140000000Y-74962500D02*
X139962500Y-75000000D01*
X140500000Y-76750000D02*
X139962500Y-76212500D01*
X145480000Y-110980000D02*
X145000000Y-110500000D01*
X143000000Y-110500000D02*
X141750000Y-110500000D01*
D23*
X139462500Y-156445000D02*
X139462500Y-156037500D01*
D24*
X140250000Y-73500000D02*
X140000000Y-73750000D01*
X145730000Y-113520000D02*
X145500000Y-113750000D01*
D23*
X140540000Y-157710000D02*
X139462500Y-156632500D01*
X146050000Y-157710000D02*
X143540000Y-157710000D01*
D24*
X145000000Y-110500000D02*
X143000000Y-110500000D01*
X145500000Y-113750000D02*
X141750000Y-113750000D01*
X147775000Y-110980000D02*
X145480000Y-110980000D01*
X141750000Y-113750000D02*
X141212500Y-113212500D01*
X144000000Y-73500000D02*
X140250000Y-73500000D01*
X141750000Y-110500000D02*
X141212500Y-111037500D01*
X155500000Y-75537500D02*
X157212500Y-75537500D01*
X141212500Y-111037500D02*
X141212500Y-112250000D01*
%TO.N,-12V*%
X158550000Y-109162500D02*
X158550000Y-110300000D01*
X143800000Y-124850000D02*
X143900000Y-124850000D01*
X158500000Y-110350000D02*
X158500000Y-124850000D01*
X158500000Y-154600000D02*
X156617500Y-156482500D01*
X156617500Y-156482500D02*
X155432500Y-156482500D01*
X158550000Y-74350000D02*
X158550000Y-109162500D01*
X151042500Y-156482500D02*
X151000000Y-156440000D01*
X152750000Y-75000000D02*
X154287500Y-73462500D01*
X143900000Y-124850000D02*
X158500000Y-124850000D01*
X152725000Y-112250000D02*
X154650000Y-112250000D01*
X157662500Y-73462500D02*
X158550000Y-74350000D01*
X158550000Y-110300000D02*
X158500000Y-110350000D01*
X151225000Y-75000000D02*
X152750000Y-75000000D01*
X154287500Y-73462500D02*
X155500000Y-73462500D01*
X143900000Y-124850000D02*
X142550000Y-123500000D01*
X155500000Y-73462500D02*
X157662500Y-73462500D01*
X158550000Y-109162500D02*
X157000000Y-110712500D01*
X141090000Y-129210000D02*
X141090000Y-131750000D01*
X142550000Y-123500000D02*
X142550000Y-123450000D01*
X156187500Y-110712500D02*
X157000000Y-110712500D01*
X141090000Y-129210000D02*
X141090000Y-127560000D01*
X141090000Y-127560000D02*
X143800000Y-124850000D01*
X155432500Y-156482500D02*
X151042500Y-156482500D01*
X154650000Y-112250000D02*
X156187500Y-110712500D01*
X158500000Y-124850000D02*
X158500000Y-154600000D01*
D23*
%TO.N,Net-(C7-Pad2)*%
X137000000Y-107000000D02*
X140712500Y-107000000D01*
X144462500Y-106962500D02*
X144500000Y-106925000D01*
X146260000Y-106925000D02*
X147775000Y-108440000D01*
X140712500Y-107000000D02*
X140750000Y-106962500D01*
X144500000Y-106925000D02*
X146260000Y-106925000D01*
X140750000Y-106962500D02*
X144462500Y-106962500D01*
%TO.N,Net-(U2A--)*%
X141000000Y-104750000D02*
X144500000Y-104750000D01*
X145285000Y-109710000D02*
X147775000Y-109710000D01*
X144500000Y-108925000D02*
X140862500Y-108925000D01*
X144715000Y-108710000D02*
X144500000Y-108925000D01*
X144500000Y-108925000D02*
X145285000Y-109710000D01*
X137500000Y-104750000D02*
X141000000Y-104750000D01*
X148000000Y-104750000D02*
X144500000Y-104750000D01*
X148000000Y-104750000D02*
X149750000Y-106500000D01*
X140862500Y-108925000D02*
X140750000Y-109037500D01*
X149750000Y-108709999D02*
X148749999Y-109710000D01*
X148749999Y-109710000D02*
X147775000Y-109710000D01*
X149750000Y-106500000D02*
X149750000Y-108709999D01*
%TO.N,Net-(U2C-+)*%
X151000000Y-111250000D02*
X151000000Y-113000000D01*
X143500000Y-117750000D02*
X146085000Y-117750000D01*
X154250000Y-117250000D02*
X154750000Y-116750000D01*
X154250000Y-113500000D02*
X154230000Y-113520000D01*
X149310000Y-116060000D02*
X150500000Y-117250000D01*
X152725000Y-110980000D02*
X151270000Y-110980000D01*
X154750000Y-116750000D02*
X154750000Y-114000000D01*
X154750000Y-114000000D02*
X154250000Y-113500000D01*
X150500000Y-117250000D02*
X154250000Y-117250000D01*
X151270000Y-110980000D02*
X151000000Y-111250000D01*
X147775000Y-116060000D02*
X149310000Y-116060000D01*
X151000000Y-113000000D02*
X151520000Y-113520000D01*
X146085000Y-117750000D02*
X147775000Y-116060000D01*
X151520000Y-113520000D02*
X152725000Y-113520000D01*
X139500000Y-117750000D02*
X143500000Y-117750000D01*
X154230000Y-113520000D02*
X152725000Y-113520000D01*
%TO.N,Net-(U2B--)*%
X144385000Y-114790000D02*
X147775000Y-114790000D01*
X137000000Y-113250000D02*
X139500000Y-115750000D01*
X143500000Y-115675000D02*
X144385000Y-114790000D01*
X139575000Y-115675000D02*
X139500000Y-115750000D01*
X143500000Y-115675000D02*
X139575000Y-115675000D01*
X137000000Y-109000000D02*
X137000000Y-113250000D01*
%TO.N,UI_IN_A_1*%
X109040000Y-72510000D02*
X105750000Y-75800000D01*
X109040000Y-61000000D02*
X109040000Y-72510000D01*
%TO.N,UI_IN_A_2*%
X111580000Y-61000000D02*
X111580000Y-72130000D01*
X111580000Y-72130000D02*
X115250000Y-75800000D01*
%TO.N,UI_IN_A_3*%
X126750000Y-59750000D02*
X126750000Y-73800000D01*
X114120000Y-59630000D02*
X114750000Y-59000000D01*
X126750000Y-73800000D02*
X124750000Y-75800000D01*
X126000000Y-59000000D02*
X126750000Y-59750000D01*
X114750000Y-59000000D02*
X126000000Y-59000000D01*
X114120000Y-61000000D02*
X114120000Y-59630000D01*
%TO.N,UI_OUT_A_1*%
X116770000Y-90280000D02*
X115250000Y-90280000D01*
X119200000Y-61000000D02*
X119200000Y-87850000D01*
X119200000Y-87850000D02*
X116770000Y-90280000D01*
%TO.N,UI_OUT_A_2*%
X121740000Y-61000000D02*
X121740000Y-87270000D01*
X121740000Y-87270000D02*
X124750000Y-90280000D01*
%TO.N,UI_IN_A_4*%
X117300000Y-88050000D02*
X107980000Y-88050000D01*
X118200000Y-87150000D02*
X117300000Y-88050000D01*
X118200000Y-62540000D02*
X118200000Y-87150000D01*
X116660000Y-61000000D02*
X118200000Y-62540000D01*
X107980000Y-88050000D02*
X105750000Y-90280000D01*
%TO.N,UI_IN_B_1*%
X105750000Y-114280000D02*
X109040000Y-110990000D01*
X109040000Y-110990000D02*
X109040000Y-99460000D01*
%TO.N,UI_IN_B_2*%
X111580000Y-99460000D02*
X111580000Y-111080000D01*
X111580000Y-111080000D02*
X114780000Y-114280000D01*
X114780000Y-114280000D02*
X115250000Y-114280000D01*
%TO.N,UI_IN_B_3*%
X127000000Y-98500000D02*
X127000000Y-112030000D01*
X114120000Y-99460000D02*
X114120000Y-98380000D01*
X127000000Y-112030000D02*
X124750000Y-114280000D01*
X115250000Y-97250000D02*
X125750000Y-97250000D01*
X125750000Y-97250000D02*
X127000000Y-98500000D01*
X114120000Y-98380000D02*
X115250000Y-97250000D01*
%TO.N,UI_OUT_B_1*%
X119200000Y-99460000D02*
X119200000Y-124830000D01*
X119200000Y-124830000D02*
X115250000Y-128780000D01*
%TO.N,UI_OUT_B_2*%
X121740000Y-125770000D02*
X124750000Y-128780000D01*
X121740000Y-99460000D02*
X121740000Y-125770000D01*
%TO.N,BE_IN_A_4*%
X147660000Y-62910000D02*
X149250000Y-64500000D01*
X149250000Y-64500000D02*
X149250000Y-65000000D01*
X147660000Y-61000000D02*
X147660000Y-62910000D01*
%TO.N,BE_IN_A_1*%
X140040000Y-63210000D02*
X138750000Y-64500000D01*
X140040000Y-61000000D02*
X140040000Y-63210000D01*
X138750000Y-64500000D02*
X138750000Y-65000000D01*
%TO.N,BE_IN_A_2*%
X142580000Y-61000000D02*
X142580000Y-64670000D01*
X142580000Y-64670000D02*
X142250000Y-65000000D01*
%TO.N,BE_IN_A_3*%
X145750000Y-63750000D02*
X145750000Y-65000000D01*
X145120000Y-61000000D02*
X145120000Y-63120000D01*
X145120000Y-63120000D02*
X145750000Y-63750000D01*
%TO.N,BE_OUT_A_1*%
X152750000Y-64000000D02*
X152750000Y-65000000D01*
X150750000Y-63250000D02*
X152000000Y-63250000D01*
X152000000Y-63250000D02*
X152750000Y-64000000D01*
X150200000Y-62700000D02*
X150750000Y-63250000D01*
X150200000Y-61000000D02*
X150200000Y-62700000D01*
%TO.N,Net-(U1C--)*%
X150250001Y-77540000D02*
X149000000Y-76289999D01*
X151850000Y-69000000D02*
X152750000Y-68100000D01*
X151850000Y-69050000D02*
X151850000Y-69000000D01*
X149000000Y-76289999D02*
X149000000Y-70550000D01*
X150500000Y-69050000D02*
X151850000Y-69050000D01*
X151225000Y-77540000D02*
X150250001Y-77540000D01*
X151225000Y-77540000D02*
X151225000Y-78810000D01*
X149000000Y-70550000D02*
X150500000Y-69050000D01*
X152750000Y-68100000D02*
X152750000Y-67000000D01*
%TO.N,BE_OUT_A_2*%
X152740000Y-61990000D02*
X153750000Y-63000000D01*
X152740000Y-61000000D02*
X152740000Y-61990000D01*
X156250000Y-64000000D02*
X156250000Y-65000000D01*
X155250000Y-63000000D02*
X156250000Y-64000000D01*
X153750000Y-63000000D02*
X155250000Y-63000000D01*
%TO.N,Net-(U1D--)*%
X151225000Y-72460000D02*
X151225000Y-71190000D01*
X156250000Y-67000000D02*
X156250000Y-68500000D01*
X156250000Y-68500000D02*
X153560000Y-71190000D01*
X153560000Y-71190000D02*
X151225000Y-71190000D01*
%TO.N,BE_IN_B_1*%
X140040000Y-100710000D02*
X138000000Y-102750000D01*
X138000000Y-102750000D02*
X137500000Y-102750000D01*
X140040000Y-99460000D02*
X140040000Y-100710000D01*
%TO.N,BE_IN_B_2*%
X142580000Y-99460000D02*
X142580000Y-100920000D01*
X142580000Y-100920000D02*
X141000000Y-102500000D01*
X141000000Y-102500000D02*
X141000000Y-102750000D01*
%TO.N,BE_IN_B_3*%
X145120000Y-101130000D02*
X144500000Y-101750000D01*
X144500000Y-101750000D02*
X144500000Y-102750000D01*
X145120000Y-99460000D02*
X145120000Y-101130000D01*
%TO.N,Net-(U2C--)*%
X152081479Y-114790000D02*
X150499000Y-113207521D01*
X150499000Y-113207521D02*
X150499000Y-109701000D01*
X150800000Y-109400000D02*
X150800000Y-105600000D01*
X150499000Y-109701000D02*
X150800000Y-109400000D01*
X152725000Y-114790000D02*
X152081479Y-114790000D01*
X152725000Y-116060000D02*
X152725000Y-114790000D01*
X150800000Y-105600000D02*
X151250000Y-105150000D01*
X151250000Y-105150000D02*
X151250000Y-104750000D01*
%TO.N,BE_OUT_B_1*%
X150200000Y-99460000D02*
X150200000Y-100950000D01*
X150200000Y-100950000D02*
X151250000Y-102000000D01*
X151250000Y-102000000D02*
X151250000Y-102750000D01*
%TO.N,Net-(U2D--)*%
X155250000Y-105915000D02*
X155250000Y-104750000D01*
X152725000Y-109710000D02*
X152725000Y-108440000D01*
X152725000Y-108440000D02*
X155250000Y-105915000D01*
%TO.N,BE_OUT_B_2*%
X152740000Y-99460000D02*
X152740000Y-100740000D01*
X152740000Y-100740000D02*
X154750000Y-102750000D01*
X154750000Y-102750000D02*
X155250000Y-102750000D01*
%TO.N,UI_IN_B_4*%
X116350000Y-126600000D02*
X107950000Y-126600000D01*
X118250000Y-101050000D02*
X118250000Y-124700000D01*
X118250000Y-124700000D02*
X116350000Y-126600000D01*
X116660000Y-99460000D02*
X118250000Y-101050000D01*
X107950000Y-126600000D02*
X105750000Y-128800000D01*
%TO.N,BE_IN_B_4*%
X148000000Y-101750000D02*
X148000000Y-102750000D01*
X147660000Y-99460000D02*
X147660000Y-101410000D01*
X147660000Y-101410000D02*
X148000000Y-101750000D01*
%TO.N,Net-(C11-Pad2)*%
X146050000Y-152630000D02*
X144130000Y-152630000D01*
X138575000Y-151425000D02*
X138500000Y-151500000D01*
X138450000Y-151450000D02*
X138500000Y-151500000D01*
X135650000Y-151450000D02*
X138450000Y-151450000D01*
X141500000Y-151425000D02*
X138575000Y-151425000D01*
X142925000Y-151425000D02*
X141500000Y-151425000D01*
X144130000Y-152630000D02*
X142925000Y-151425000D01*
%TO.N,Net-(U3A--)*%
X148250000Y-153250000D02*
X148250000Y-150250000D01*
X146050000Y-153900000D02*
X147600000Y-153900000D01*
X136100000Y-146150000D02*
X139350000Y-146150000D01*
X147500000Y-146000000D02*
X143150000Y-146000000D01*
X139350000Y-146150000D02*
X139500000Y-146000000D01*
X147500000Y-149500000D02*
X147500000Y-146000000D01*
X148250000Y-150250000D02*
X147500000Y-149500000D01*
X138500000Y-153500000D02*
X141500000Y-153500000D01*
X139500000Y-146000000D02*
X143150000Y-146000000D01*
X141500000Y-153500000D02*
X141750000Y-153500000D01*
X141750000Y-153500000D02*
X142150000Y-153900000D01*
X147600000Y-153900000D02*
X148250000Y-153250000D01*
X142150000Y-153900000D02*
X146050000Y-153900000D01*
%TO.N,Net-(U3B--)*%
X141712500Y-160000000D02*
X141750000Y-159962500D01*
X138000000Y-156000000D02*
X138000000Y-160000000D01*
X138000000Y-160000000D02*
X141712500Y-160000000D01*
X142732500Y-158980000D02*
X141750000Y-159962500D01*
X135650000Y-153650000D02*
X138000000Y-156000000D01*
X146050000Y-158980000D02*
X142732500Y-158980000D01*
X135650000Y-153450000D02*
X135650000Y-153650000D01*
%TO.N,Net-(U3C-+)*%
X151974999Y-157710000D02*
X151000000Y-157710000D01*
X146050000Y-160250000D02*
X144300000Y-162000000D01*
X149730000Y-155170000D02*
X149050000Y-155850000D01*
X149050000Y-155850000D02*
X149050000Y-156800000D01*
X142962500Y-162037500D02*
X141750000Y-162037500D01*
X152500000Y-161550000D02*
X152950000Y-161100000D01*
X152950000Y-161100000D02*
X152950000Y-158685001D01*
X149960000Y-157710000D02*
X151000000Y-157710000D01*
X143000000Y-162000000D02*
X142962500Y-162037500D01*
X149050000Y-156800000D02*
X149960000Y-157710000D01*
X146050000Y-160250000D02*
X147900000Y-160250000D01*
X147900000Y-160250000D02*
X149200000Y-161550000D01*
X141750000Y-162037500D02*
X138037500Y-162037500D01*
X152950000Y-158685001D02*
X151974999Y-157710000D01*
X144300000Y-162000000D02*
X143000000Y-162000000D01*
X138037500Y-162037500D02*
X138000000Y-162000000D01*
X149200000Y-161550000D02*
X152500000Y-161550000D01*
X151000000Y-155170000D02*
X149730000Y-155170000D01*
%TO.N,UI_IN_C_1*%
X109040000Y-149727500D02*
X105750000Y-153017500D01*
X109040000Y-138017500D02*
X109040000Y-149727500D01*
%TO.N,UI_IN_C_2*%
X111580000Y-138017500D02*
X111580000Y-149347500D01*
X111580000Y-149347500D02*
X115250000Y-153017500D01*
%TO.N,UI_IN_C_3*%
X127250000Y-137250000D02*
X127250000Y-150517500D01*
X126000000Y-136000000D02*
X127250000Y-137250000D01*
X127250000Y-150517500D02*
X124750000Y-153017500D01*
X116137500Y-136000000D02*
X126000000Y-136000000D01*
X114120000Y-138017500D02*
X116137500Y-136000000D01*
%TO.N,UI_IN_C_4*%
X116660000Y-138017500D02*
X118250000Y-139607500D01*
X108267500Y-165000000D02*
X105750000Y-167517500D01*
X118250000Y-139607500D02*
X118250000Y-163500000D01*
X116750000Y-165000000D02*
X108267500Y-165000000D01*
X118250000Y-163500000D02*
X116750000Y-165000000D01*
%TO.N,UI_OUT_C_1*%
X119200000Y-138017500D02*
X119200000Y-163567500D01*
X119200000Y-163567500D02*
X115250000Y-167517500D01*
%TO.N,UI_OUT_C_2*%
X121740000Y-138017500D02*
X121740000Y-164507500D01*
X121740000Y-164507500D02*
X124750000Y-167517500D01*
%TO.N,BE_IN_C_3*%
X143150000Y-142850000D02*
X143150000Y-144000000D01*
X145120000Y-140880000D02*
X143150000Y-142850000D01*
X145120000Y-138017500D02*
X145120000Y-140880000D01*
%TO.N,BE_IN_C_1*%
X140040000Y-139960000D02*
X136100000Y-143900000D01*
X136100000Y-143900000D02*
X136100000Y-144150000D01*
X140040000Y-138017500D02*
X140040000Y-139960000D01*
%TO.N,BE_IN_C_4*%
X147660000Y-138017500D02*
X147660000Y-143840000D01*
X147660000Y-143840000D02*
X147500000Y-144000000D01*
%TO.N,BE_OUT_C_2*%
X152740000Y-140490000D02*
X154000000Y-141750000D01*
X152740000Y-138017500D02*
X152740000Y-140490000D01*
X155250000Y-141750000D02*
X156200000Y-142700000D01*
X156200000Y-142700000D02*
X156200000Y-144000000D01*
X154000000Y-141750000D02*
X155250000Y-141750000D01*
%TO.N,BE_OUT_C_1*%
X150200000Y-138017500D02*
X150200000Y-140950000D01*
X152000000Y-142750000D02*
X152000000Y-144000000D01*
X150200000Y-140950000D02*
X152000000Y-142750000D01*
%TO.N,BE_IN_C_2*%
X142580000Y-138017500D02*
X142580000Y-140170000D01*
X142580000Y-140170000D02*
X139500000Y-143250000D01*
X139500000Y-143250000D02*
X139500000Y-144000000D01*
%TO.N,Net-(U3C--)*%
X150025001Y-158980000D02*
X151000000Y-158980000D01*
X149100000Y-155091480D02*
X148549000Y-155642480D01*
X151000000Y-160250000D02*
X151000000Y-158980000D01*
X152000000Y-146000000D02*
X149100000Y-148900000D01*
X148549000Y-155642480D02*
X148549000Y-157503999D01*
X148549000Y-157503999D02*
X150025001Y-158980000D01*
X149100000Y-148900000D02*
X149100000Y-155091480D01*
%TO.N,Net-(U3D--)*%
X156200000Y-147430000D02*
X156200000Y-146000000D01*
X151000000Y-152630000D02*
X151000000Y-153900000D01*
X151000000Y-152630000D02*
X156200000Y-147430000D01*
%TD*%
M02*
