%TF.GenerationSoftware,KiCad,Pcbnew,9.0.3+dfsg-1*%
%TF.CreationDate,2026-03-02T08:57:09+01:00*%
%TF.ProjectId,summix-pcb,73756d6d-6978-42d7-9063-622e6b696361,rev?*%
%TF.SameCoordinates,Original*%
%TF.FileFunction,Legend,Bot*%
%TF.FilePolarity,Positive*%
%FSLAX46Y46*%
G04 Gerber Fmt 4.6, Leading zero omitted, Abs format (unit mm)*
G04 Created by KiCad (PCBNEW 9.0.3+dfsg-1) date 2026-03-02 08:57:09*
%MOMM*%
%LPD*%
G01*
G04 APERTURE LIST*
%ADD10C,0.100000*%
%ADD11C,0.150000*%
%ADD12C,0.120000*%
G04 APERTURE END LIST*
D10*
X133450000Y-125500000D02*
X134150000Y-125500000D01*
X134150000Y-135400000D01*
X133450000Y-135400000D01*
X133450000Y-125500000D01*
G36*
X133450000Y-125500000D02*
G01*
X134150000Y-125500000D01*
X134150000Y-135400000D01*
X133450000Y-135400000D01*
X133450000Y-125500000D01*
G37*
D11*
X145166666Y-123844580D02*
X145214285Y-123892200D01*
X145214285Y-123892200D02*
X145357142Y-123939819D01*
X145357142Y-123939819D02*
X145452380Y-123939819D01*
X145452380Y-123939819D02*
X145595237Y-123892200D01*
X145595237Y-123892200D02*
X145690475Y-123796961D01*
X145690475Y-123796961D02*
X145738094Y-123701723D01*
X145738094Y-123701723D02*
X145785713Y-123511247D01*
X145785713Y-123511247D02*
X145785713Y-123368390D01*
X145785713Y-123368390D02*
X145738094Y-123177914D01*
X145738094Y-123177914D02*
X145690475Y-123082676D01*
X145690475Y-123082676D02*
X145595237Y-122987438D01*
X145595237Y-122987438D02*
X145452380Y-122939819D01*
X145452380Y-122939819D02*
X145357142Y-122939819D01*
X145357142Y-122939819D02*
X145214285Y-122987438D01*
X145214285Y-122987438D02*
X145166666Y-123035057D01*
X144309523Y-122939819D02*
X144499999Y-122939819D01*
X144499999Y-122939819D02*
X144595237Y-122987438D01*
X144595237Y-122987438D02*
X144642856Y-123035057D01*
X144642856Y-123035057D02*
X144738094Y-123177914D01*
X144738094Y-123177914D02*
X144785713Y-123368390D01*
X144785713Y-123368390D02*
X144785713Y-123749342D01*
X144785713Y-123749342D02*
X144738094Y-123844580D01*
X144738094Y-123844580D02*
X144690475Y-123892200D01*
X144690475Y-123892200D02*
X144595237Y-123939819D01*
X144595237Y-123939819D02*
X144404761Y-123939819D01*
X144404761Y-123939819D02*
X144309523Y-123892200D01*
X144309523Y-123892200D02*
X144261904Y-123844580D01*
X144261904Y-123844580D02*
X144214285Y-123749342D01*
X144214285Y-123749342D02*
X144214285Y-123511247D01*
X144214285Y-123511247D02*
X144261904Y-123416009D01*
X144261904Y-123416009D02*
X144309523Y-123368390D01*
X144309523Y-123368390D02*
X144404761Y-123320771D01*
X144404761Y-123320771D02*
X144595237Y-123320771D01*
X144595237Y-123320771D02*
X144690475Y-123368390D01*
X144690475Y-123368390D02*
X144738094Y-123416009D01*
X144738094Y-123416009D02*
X144785713Y-123511247D01*
X153354819Y-129670476D02*
X154069104Y-129670476D01*
X154069104Y-129670476D02*
X154211961Y-129622857D01*
X154211961Y-129622857D02*
X154307200Y-129527619D01*
X154307200Y-129527619D02*
X154354819Y-129384762D01*
X154354819Y-129384762D02*
X154354819Y-129289524D01*
X153450057Y-130099048D02*
X153402438Y-130146667D01*
X153402438Y-130146667D02*
X153354819Y-130241905D01*
X153354819Y-130241905D02*
X153354819Y-130480000D01*
X153354819Y-130480000D02*
X153402438Y-130575238D01*
X153402438Y-130575238D02*
X153450057Y-130622857D01*
X153450057Y-130622857D02*
X153545295Y-130670476D01*
X153545295Y-130670476D02*
X153640533Y-130670476D01*
X153640533Y-130670476D02*
X153783390Y-130622857D01*
X153783390Y-130622857D02*
X154354819Y-130051429D01*
X154354819Y-130051429D02*
X154354819Y-130670476D01*
X153354819Y-131575238D02*
X153354819Y-131099048D01*
X153354819Y-131099048D02*
X153831009Y-131051429D01*
X153831009Y-131051429D02*
X153783390Y-131099048D01*
X153783390Y-131099048D02*
X153735771Y-131194286D01*
X153735771Y-131194286D02*
X153735771Y-131432381D01*
X153735771Y-131432381D02*
X153783390Y-131527619D01*
X153783390Y-131527619D02*
X153831009Y-131575238D01*
X153831009Y-131575238D02*
X153926247Y-131622857D01*
X153926247Y-131622857D02*
X154164342Y-131622857D01*
X154164342Y-131622857D02*
X154259580Y-131575238D01*
X154259580Y-131575238D02*
X154307200Y-131527619D01*
X154307200Y-131527619D02*
X154354819Y-131432381D01*
X154354819Y-131432381D02*
X154354819Y-131194286D01*
X154354819Y-131194286D02*
X154307200Y-131099048D01*
X154307200Y-131099048D02*
X154259580Y-131051429D01*
X156626666Y-116659580D02*
X156674285Y-116707200D01*
X156674285Y-116707200D02*
X156817142Y-116754819D01*
X156817142Y-116754819D02*
X156912380Y-116754819D01*
X156912380Y-116754819D02*
X157055237Y-116707200D01*
X157055237Y-116707200D02*
X157150475Y-116611961D01*
X157150475Y-116611961D02*
X157198094Y-116516723D01*
X157198094Y-116516723D02*
X157245713Y-116326247D01*
X157245713Y-116326247D02*
X157245713Y-116183390D01*
X157245713Y-116183390D02*
X157198094Y-115992914D01*
X157198094Y-115992914D02*
X157150475Y-115897676D01*
X157150475Y-115897676D02*
X157055237Y-115802438D01*
X157055237Y-115802438D02*
X156912380Y-115754819D01*
X156912380Y-115754819D02*
X156817142Y-115754819D01*
X156817142Y-115754819D02*
X156674285Y-115802438D01*
X156674285Y-115802438D02*
X156626666Y-115850057D01*
X155721904Y-115754819D02*
X156198094Y-115754819D01*
X156198094Y-115754819D02*
X156245713Y-116231009D01*
X156245713Y-116231009D02*
X156198094Y-116183390D01*
X156198094Y-116183390D02*
X156102856Y-116135771D01*
X156102856Y-116135771D02*
X155864761Y-116135771D01*
X155864761Y-116135771D02*
X155769523Y-116183390D01*
X155769523Y-116183390D02*
X155721904Y-116231009D01*
X155721904Y-116231009D02*
X155674285Y-116326247D01*
X155674285Y-116326247D02*
X155674285Y-116564342D01*
X155674285Y-116564342D02*
X155721904Y-116659580D01*
X155721904Y-116659580D02*
X155769523Y-116707200D01*
X155769523Y-116707200D02*
X155864761Y-116754819D01*
X155864761Y-116754819D02*
X156102856Y-116754819D01*
X156102856Y-116754819D02*
X156198094Y-116707200D01*
X156198094Y-116707200D02*
X156245713Y-116659580D01*
D12*
%TO.C,C6*%
X135362500Y-123097500D02*
X136150000Y-123097500D01*
X135756250Y-123491250D02*
X135756250Y-122703750D01*
X136390000Y-118904437D02*
X136390000Y-120190000D01*
X136390000Y-118904437D02*
X137454437Y-117840000D01*
X136390000Y-123595563D02*
X136390000Y-122310000D01*
X136390000Y-123595563D02*
X137454437Y-124660000D01*
X137454437Y-117840000D02*
X143210000Y-117840000D01*
X137454437Y-124660000D02*
X143210000Y-124660000D01*
X143210000Y-117840000D02*
X143210000Y-120190000D01*
X143210000Y-124660000D02*
X143210000Y-122310000D01*
%TO.C,J25*%
X135880000Y-125920000D02*
X135880000Y-135040000D01*
X135880000Y-135040000D02*
X156460000Y-135040000D01*
X137180000Y-127230000D02*
X137180000Y-133730000D01*
X137180000Y-133730000D02*
X155160000Y-133730000D01*
X140590000Y-124530000D02*
X141590000Y-124530000D01*
X141090000Y-125530000D02*
X140590000Y-124530000D01*
X141590000Y-124530000D02*
X141090000Y-125530000D01*
X144120000Y-125920000D02*
X144120000Y-127230000D01*
X144120000Y-127230000D02*
X137180000Y-127230000D01*
X148220000Y-127230000D02*
X148220000Y-125920000D01*
X155160000Y-127230000D02*
X148220000Y-127230000D01*
X155160000Y-133730000D02*
X155160000Y-127230000D01*
X156460000Y-125920000D02*
X135880000Y-125920000D01*
X156460000Y-135040000D02*
X156460000Y-125920000D01*
%TO.C,C5*%
X148612500Y-122847500D02*
X149400000Y-122847500D01*
X149006250Y-123241250D02*
X149006250Y-122453750D01*
X149640000Y-118654437D02*
X149640000Y-119940000D01*
X149640000Y-118654437D02*
X150704437Y-117590000D01*
X149640000Y-123345563D02*
X149640000Y-122060000D01*
X149640000Y-123345563D02*
X150704437Y-124410000D01*
X150704437Y-117590000D02*
X156460000Y-117590000D01*
X150704437Y-124410000D02*
X156460000Y-124410000D01*
X156460000Y-117590000D02*
X156460000Y-119940000D01*
X156460000Y-124410000D02*
X156460000Y-122060000D01*
%TD*%
M02*
