M48
; DRILL file {KiCad 9.0.3+dfsg-1} date 2026-03-02T08:57:07+0100
; FORMAT={-:-/ absolute / metric / decimal}
; #@! TF.CreationDate,2026-03-02T08:57:07+01:00
; #@! TF.GenerationSoftware,Kicad,Pcbnew,9.0.3+dfsg-1
; #@! TF.FileFunction,Plated,1,2,PTH
FMAT,2
METRIC
; #@! TA.AperFunction,Plated,PTH,ViaDrill
T1C0.300
; #@! TA.AperFunction,Plated,PTH,ViaDrill
T2C0.400
; #@! TA.AperFunction,Plated,PTH,ComponentDrill
T3C1.000
; #@! TA.AperFunction,Plated,PTH,ComponentDrill
T4C1.220
; #@! TA.AperFunction,Plated,PTH,ComponentDrill
T5C1.420
; #@! TA.AperFunction,Plated,PTH,ComponentDrill
T6C1.430
%
G90
G05
T1
X143.54Y-157.71
X155.5Y-152.5
T2
X140.25Y-73.5
X142.55Y-123.45
X143.0Y-110.5
X146.8Y-121.25
X148.85Y-159.5
X148.85Y-162.6
X148.9Y-79.7
X148.95Y-81.4
X150.866Y-116.45
X157.0Y-114.5
X157.25Y-75.5
T3
X106.5Y-61.0
X106.5Y-99.46
X106.5Y-138.017
X109.04Y-61.0
X109.04Y-99.46
X109.04Y-138.017
X111.58Y-61.0
X111.58Y-99.46
X111.58Y-138.017
X114.12Y-61.0
X114.12Y-99.46
X114.12Y-138.017
X116.66Y-61.0
X116.66Y-99.46
X116.66Y-138.017
X119.2Y-61.0
X119.2Y-99.46
X119.2Y-138.017
X121.74Y-61.0
X121.74Y-99.46
X121.74Y-138.017
X124.28Y-61.0
X124.28Y-99.46
X124.28Y-138.017
X137.5Y-61.0
X137.5Y-99.46
X137.5Y-138.017
X140.04Y-61.0
X140.04Y-99.46
X140.04Y-138.017
X141.09Y-129.21
X141.09Y-131.75
X142.58Y-61.0
X142.58Y-99.46
X142.58Y-138.017
X143.63Y-129.21
X143.63Y-131.75
X145.12Y-61.0
X145.12Y-99.46
X145.12Y-138.017
X146.17Y-129.21
X146.17Y-131.75
X147.66Y-61.0
X147.66Y-99.46
X147.66Y-138.017
X148.71Y-129.21
X148.71Y-131.75
X150.2Y-61.0
X150.2Y-99.46
X150.2Y-138.017
X151.25Y-129.21
X151.25Y-131.75
X152.74Y-61.0
X152.74Y-99.46
X152.74Y-138.017
X155.28Y-61.0
X155.28Y-99.46
X155.28Y-138.017
T4
X105.75Y-64.4
X105.75Y-78.88
X105.75Y-102.88
X105.75Y-117.4
X105.75Y-141.618
X105.75Y-156.118
X115.25Y-64.4
X115.25Y-78.88
X115.25Y-102.88
X115.25Y-117.4
X115.25Y-141.618
X115.25Y-156.118
X124.75Y-64.4
X124.75Y-78.88
X124.75Y-102.88
X124.75Y-117.4
X124.75Y-141.618
X124.75Y-156.118
T5
X105.75Y-67.5
X105.75Y-81.98
X105.75Y-105.98
X105.75Y-120.5
X105.75Y-144.718
X105.75Y-159.218
X115.25Y-67.5
X115.25Y-81.98
X115.25Y-105.98
X115.25Y-120.5
X115.25Y-144.718
X115.25Y-159.218
X124.75Y-67.5
X124.75Y-81.98
X124.75Y-105.98
X124.75Y-120.5
X124.75Y-144.718
X124.75Y-159.218
T6
X105.75Y-75.8
X105.75Y-90.28
X105.75Y-114.28
X105.75Y-128.8
X105.75Y-153.017
X105.75Y-167.517
X115.25Y-75.8
X115.25Y-90.28
X115.25Y-114.28
X115.25Y-128.8
X115.25Y-153.017
X115.25Y-167.517
X124.75Y-75.8
X124.75Y-90.28
X124.75Y-114.28
X124.75Y-128.8
X124.75Y-153.017
X124.75Y-167.517
M30
