%TF.GenerationSoftware,KiCad,Pcbnew,9.0.3+dfsg-1*%
%TF.CreationDate,2026-03-02T08:57:09+01:00*%
%TF.ProjectId,summix-pcb,73756d6d-6978-42d7-9063-622e6b696361,rev?*%
%TF.SameCoordinates,Original*%
%TF.FileFunction,Soldermask,Bot*%
%TF.FilePolarity,Negative*%
%FSLAX46Y46*%
G04 Gerber Fmt 4.6, Leading zero omitted, Abs format (unit mm)*
G04 Created by KiCad (PCBNEW 9.0.3+dfsg-1) date 2026-03-02 08:57:09*
%MOMM*%
%LPD*%
G01*
G04 APERTURE LIST*
G04 Aperture macros list*
%AMRoundRect*
0 Rectangle with rounded corners*
0 $1 Rounding radius*
0 $2 $3 $4 $5 $6 $7 $8 $9 X,Y pos of 4 corners*
0 Add a 4 corners polygon primitive as box body*
4,1,4,$2,$3,$4,$5,$6,$7,$8,$9,$2,$3,0*
0 Add four circle primitives for the rounded corners*
1,1,$1+$1,$2,$3*
1,1,$1+$1,$4,$5*
1,1,$1+$1,$6,$7*
1,1,$1+$1,$8,$9*
0 Add four rect primitives between the rounded corners*
20,1,$1+$1,$2,$3,$4,$5,0*
20,1,$1+$1,$4,$5,$6,$7,0*
20,1,$1+$1,$6,$7,$8,$9,0*
20,1,$1+$1,$8,$9,$2,$3,0*%
G04 Aperture macros list end*
%ADD10R,1.930000X1.830000*%
%ADD11C,2.130000*%
%ADD12R,1.700000X1.700000*%
%ADD13C,1.700000*%
%ADD14RoundRect,0.250000X-1.500000X-0.550000X1.500000X-0.550000X1.500000X0.550000X-1.500000X0.550000X0*%
%ADD15RoundRect,0.250000X-0.600000X0.600000X-0.600000X-0.600000X0.600000X-0.600000X0.600000X0.600000X0*%
G04 APERTURE END LIST*
D10*
%TO.C,J12*%
X115250000Y-117400000D03*
D11*
X115250000Y-128800000D03*
X115250000Y-120500000D03*
%TD*%
D12*
%TO.C,J15*%
X106500000Y-99460000D03*
D13*
X109040000Y-99460000D03*
X111580000Y-99460000D03*
X114120000Y-99460000D03*
X116660000Y-99460000D03*
X119200000Y-99460000D03*
X121740000Y-99460000D03*
X124280000Y-99460000D03*
%TD*%
D10*
%TO.C,J20*%
X105750000Y-156117500D03*
D11*
X105750000Y-167517500D03*
X105750000Y-159217500D03*
%TD*%
D10*
%TO.C,J14*%
X105750000Y-117400000D03*
D11*
X105750000Y-128800000D03*
X105750000Y-120500000D03*
%TD*%
D10*
%TO.C,J6*%
X105750000Y-78880000D03*
D11*
X105750000Y-90280000D03*
X105750000Y-81980000D03*
%TD*%
D10*
%TO.C,J17*%
X105750000Y-141617500D03*
D11*
X105750000Y-153017500D03*
X105750000Y-144717500D03*
%TD*%
D10*
%TO.C,J18*%
X115250000Y-141617500D03*
D11*
X115250000Y-153017500D03*
X115250000Y-144717500D03*
%TD*%
D10*
%TO.C,J21*%
X115250000Y-156117500D03*
D11*
X115250000Y-167517500D03*
X115250000Y-159217500D03*
%TD*%
D10*
%TO.C,J1*%
X105750000Y-64400000D03*
D11*
X105750000Y-75800000D03*
X105750000Y-67500000D03*
%TD*%
D10*
%TO.C,J10*%
X115250000Y-102880000D03*
D11*
X115250000Y-114280000D03*
X115250000Y-105980000D03*
%TD*%
D12*
%TO.C,J24*%
X137500000Y-138017500D03*
D13*
X140040000Y-138017500D03*
X142580000Y-138017500D03*
X145120000Y-138017500D03*
X147660000Y-138017500D03*
X150200000Y-138017500D03*
X152740000Y-138017500D03*
X155280000Y-138017500D03*
%TD*%
D12*
%TO.C,J7*%
X106500000Y-61000000D03*
D13*
X109040000Y-61000000D03*
X111580000Y-61000000D03*
X114120000Y-61000000D03*
X116660000Y-61000000D03*
X119200000Y-61000000D03*
X121740000Y-61000000D03*
X124280000Y-61000000D03*
%TD*%
D10*
%TO.C,J13*%
X124750000Y-117400000D03*
D11*
X124750000Y-128800000D03*
X124750000Y-120500000D03*
%TD*%
D12*
%TO.C,J8*%
X137500000Y-61000000D03*
D13*
X140040000Y-61000000D03*
X142580000Y-61000000D03*
X145120000Y-61000000D03*
X147660000Y-61000000D03*
X150200000Y-61000000D03*
X152740000Y-61000000D03*
X155280000Y-61000000D03*
%TD*%
D10*
%TO.C,J4*%
X115250000Y-78880000D03*
D11*
X115250000Y-90280000D03*
X115250000Y-81980000D03*
%TD*%
D12*
%TO.C,J16*%
X137500000Y-99460000D03*
D13*
X140040000Y-99460000D03*
X142580000Y-99460000D03*
X145120000Y-99460000D03*
X147660000Y-99460000D03*
X150200000Y-99460000D03*
X152740000Y-99460000D03*
X155280000Y-99460000D03*
%TD*%
D10*
%TO.C,J11*%
X124750000Y-102880000D03*
D11*
X124750000Y-114280000D03*
X124750000Y-105980000D03*
%TD*%
D10*
%TO.C,J19*%
X124750000Y-141617500D03*
D11*
X124750000Y-153017500D03*
X124750000Y-144717500D03*
%TD*%
D10*
%TO.C,J22*%
X124750000Y-156117500D03*
D11*
X124750000Y-167517500D03*
X124750000Y-159217500D03*
%TD*%
D10*
%TO.C,J3*%
X124750000Y-64400000D03*
D11*
X124750000Y-75800000D03*
X124750000Y-67500000D03*
%TD*%
D10*
%TO.C,J9*%
X105750000Y-102880000D03*
D11*
X105750000Y-114280000D03*
X105750000Y-105980000D03*
%TD*%
D10*
%TO.C,J2*%
X115250000Y-64400000D03*
D11*
X115250000Y-75800000D03*
X115250000Y-67500000D03*
%TD*%
D10*
%TO.C,J5*%
X124750000Y-78880000D03*
D11*
X124750000Y-90280000D03*
X124750000Y-81980000D03*
%TD*%
D12*
%TO.C,J23*%
X106500000Y-138017500D03*
D13*
X109040000Y-138017500D03*
X111580000Y-138017500D03*
X114120000Y-138017500D03*
X116660000Y-138017500D03*
X119200000Y-138017500D03*
X121740000Y-138017500D03*
X124280000Y-138017500D03*
%TD*%
D14*
%TO.C,C6*%
X137100000Y-121250000D03*
X142500000Y-121250000D03*
%TD*%
D15*
%TO.C,J25*%
X141090000Y-129210000D03*
D13*
X141090000Y-131750000D03*
X143630000Y-129210000D03*
X143630000Y-131750000D03*
X146170000Y-129210000D03*
X146170000Y-131750000D03*
X148710000Y-129210000D03*
X148710000Y-131750000D03*
X151250000Y-129210000D03*
X151250000Y-131750000D03*
%TD*%
D14*
%TO.C,C5*%
X150350000Y-121000000D03*
X155750000Y-121000000D03*
%TD*%
M02*
