%TF.GenerationSoftware,KiCad,Pcbnew,9.0.3+dfsg-1*%
%TF.CreationDate,2026-01-10T12:58:58+01:00*%
%TF.ProjectId,cv-switch,63762d73-7769-4746-9368-2e6b69636164,rev?*%
%TF.SameCoordinates,Original*%
%TF.FileFunction,Legend,Bot*%
%TF.FilePolarity,Positive*%
%FSLAX46Y46*%
G04 Gerber Fmt 4.6, Leading zero omitted, Abs format (unit mm)*
G04 Created by KiCad (PCBNEW 9.0.3+dfsg-1) date 2026-01-10 12:58:58*
%MOMM*%
%LPD*%
G01*
G04 APERTURE LIST*
%ADD10C,0.300000*%
%ADD11C,0.150000*%
%ADD12C,0.120000*%
G04 APERTURE END LIST*
D10*
X57000000Y-121000000D02*
X63500000Y-121000000D01*
D11*
X60578333Y-135414819D02*
X60578333Y-136129104D01*
X60578333Y-136129104D02*
X60625952Y-136271961D01*
X60625952Y-136271961D02*
X60721190Y-136367200D01*
X60721190Y-136367200D02*
X60864047Y-136414819D01*
X60864047Y-136414819D02*
X60959285Y-136414819D01*
X60197380Y-135414819D02*
X59578333Y-135414819D01*
X59578333Y-135414819D02*
X59911666Y-135795771D01*
X59911666Y-135795771D02*
X59768809Y-135795771D01*
X59768809Y-135795771D02*
X59673571Y-135843390D01*
X59673571Y-135843390D02*
X59625952Y-135891009D01*
X59625952Y-135891009D02*
X59578333Y-135986247D01*
X59578333Y-135986247D02*
X59578333Y-136224342D01*
X59578333Y-136224342D02*
X59625952Y-136319580D01*
X59625952Y-136319580D02*
X59673571Y-136367200D01*
X59673571Y-136367200D02*
X59768809Y-136414819D01*
X59768809Y-136414819D02*
X60054523Y-136414819D01*
X60054523Y-136414819D02*
X60149761Y-136367200D01*
X60149761Y-136367200D02*
X60197380Y-136319580D01*
D12*
%TO.C,J3*%
X57595000Y-122040000D02*
X62895000Y-122040000D01*
X57595000Y-132310000D02*
X57595000Y-122040000D01*
X57595000Y-132310000D02*
X60245000Y-132310000D01*
X57595000Y-133580000D02*
X57595000Y-134960000D01*
X57595000Y-134960000D02*
X58975000Y-134960000D01*
X60245000Y-132310000D02*
X60245000Y-134960000D01*
X60245000Y-134960000D02*
X62895000Y-134960000D01*
X62895000Y-134960000D02*
X62895000Y-122040000D01*
%TD*%
M02*
