%TF.GenerationSoftware,KiCad,Pcbnew,9.0.3+dfsg-1*%
%TF.CreationDate,2026-01-10T12:58:58+01:00*%
%TF.ProjectId,cv-switch,63762d73-7769-4746-9368-2e6b69636164,rev?*%
%TF.SameCoordinates,Original*%
%TF.FileFunction,Legend,Top*%
%TF.FilePolarity,Positive*%
%FSLAX46Y46*%
G04 Gerber Fmt 4.6, Leading zero omitted, Abs format (unit mm)*
G04 Created by KiCad (PCBNEW 9.0.3+dfsg-1) date 2026-01-10 12:58:58*
%MOMM*%
%LPD*%
G01*
G04 APERTURE LIST*
%ADD10C,0.100000*%
%ADD11C,0.150000*%
%ADD12C,0.120000*%
G04 APERTURE END LIST*
D10*
X41977698Y-56622318D02*
X41644365Y-56146127D01*
X41406270Y-56622318D02*
X41406270Y-55622318D01*
X41406270Y-55622318D02*
X41787222Y-55622318D01*
X41787222Y-55622318D02*
X41882460Y-55669937D01*
X41882460Y-55669937D02*
X41930079Y-55717556D01*
X41930079Y-55717556D02*
X41977698Y-55812794D01*
X41977698Y-55812794D02*
X41977698Y-55955651D01*
X41977698Y-55955651D02*
X41930079Y-56050889D01*
X41930079Y-56050889D02*
X41882460Y-56098508D01*
X41882460Y-56098508D02*
X41787222Y-56146127D01*
X41787222Y-56146127D02*
X41406270Y-56146127D01*
X42834841Y-55622318D02*
X42644365Y-55622318D01*
X42644365Y-55622318D02*
X42549127Y-55669937D01*
X42549127Y-55669937D02*
X42501508Y-55717556D01*
X42501508Y-55717556D02*
X42406270Y-55860413D01*
X42406270Y-55860413D02*
X42358651Y-56050889D01*
X42358651Y-56050889D02*
X42358651Y-56431841D01*
X42358651Y-56431841D02*
X42406270Y-56527079D01*
X42406270Y-56527079D02*
X42453889Y-56574699D01*
X42453889Y-56574699D02*
X42549127Y-56622318D01*
X42549127Y-56622318D02*
X42739603Y-56622318D01*
X42739603Y-56622318D02*
X42834841Y-56574699D01*
X42834841Y-56574699D02*
X42882460Y-56527079D01*
X42882460Y-56527079D02*
X42930079Y-56431841D01*
X42930079Y-56431841D02*
X42930079Y-56193746D01*
X42930079Y-56193746D02*
X42882460Y-56098508D01*
X42882460Y-56098508D02*
X42834841Y-56050889D01*
X42834841Y-56050889D02*
X42739603Y-56003270D01*
X42739603Y-56003270D02*
X42549127Y-56003270D01*
X42549127Y-56003270D02*
X42453889Y-56050889D01*
X42453889Y-56050889D02*
X42406270Y-56098508D01*
X42406270Y-56098508D02*
X42358651Y-56193746D01*
X54375312Y-54872419D02*
X54041979Y-54396228D01*
X53803884Y-54872419D02*
X53803884Y-53872419D01*
X53803884Y-53872419D02*
X54184836Y-53872419D01*
X54184836Y-53872419D02*
X54280074Y-53920038D01*
X54280074Y-53920038D02*
X54327693Y-53967657D01*
X54327693Y-53967657D02*
X54375312Y-54062895D01*
X54375312Y-54062895D02*
X54375312Y-54205752D01*
X54375312Y-54205752D02*
X54327693Y-54300990D01*
X54327693Y-54300990D02*
X54280074Y-54348609D01*
X54280074Y-54348609D02*
X54184836Y-54396228D01*
X54184836Y-54396228D02*
X53803884Y-54396228D01*
X54661027Y-53872419D02*
X54994360Y-54872419D01*
X54994360Y-54872419D02*
X55327693Y-53872419D01*
X56184836Y-54872419D02*
X55613408Y-54872419D01*
X55899122Y-54872419D02*
X55899122Y-53872419D01*
X55899122Y-53872419D02*
X55803884Y-54015276D01*
X55803884Y-54015276D02*
X55708646Y-54110514D01*
X55708646Y-54110514D02*
X55613408Y-54158133D01*
X46755312Y-50277180D02*
X46707693Y-50324800D01*
X46707693Y-50324800D02*
X46564836Y-50372419D01*
X46564836Y-50372419D02*
X46469598Y-50372419D01*
X46469598Y-50372419D02*
X46326741Y-50324800D01*
X46326741Y-50324800D02*
X46231503Y-50229561D01*
X46231503Y-50229561D02*
X46183884Y-50134323D01*
X46183884Y-50134323D02*
X46136265Y-49943847D01*
X46136265Y-49943847D02*
X46136265Y-49800990D01*
X46136265Y-49800990D02*
X46183884Y-49610514D01*
X46183884Y-49610514D02*
X46231503Y-49515276D01*
X46231503Y-49515276D02*
X46326741Y-49420038D01*
X46326741Y-49420038D02*
X46469598Y-49372419D01*
X46469598Y-49372419D02*
X46564836Y-49372419D01*
X46564836Y-49372419D02*
X46707693Y-49420038D01*
X46707693Y-49420038D02*
X46755312Y-49467657D01*
X47707693Y-50372419D02*
X47136265Y-50372419D01*
X47421979Y-50372419D02*
X47421979Y-49372419D01*
X47421979Y-49372419D02*
X47326741Y-49515276D01*
X47326741Y-49515276D02*
X47231503Y-49610514D01*
X47231503Y-49610514D02*
X47136265Y-49658133D01*
X48326741Y-49372419D02*
X48421979Y-49372419D01*
X48421979Y-49372419D02*
X48517217Y-49420038D01*
X48517217Y-49420038D02*
X48564836Y-49467657D01*
X48564836Y-49467657D02*
X48612455Y-49562895D01*
X48612455Y-49562895D02*
X48660074Y-49753371D01*
X48660074Y-49753371D02*
X48660074Y-49991466D01*
X48660074Y-49991466D02*
X48612455Y-50181942D01*
X48612455Y-50181942D02*
X48564836Y-50277180D01*
X48564836Y-50277180D02*
X48517217Y-50324800D01*
X48517217Y-50324800D02*
X48421979Y-50372419D01*
X48421979Y-50372419D02*
X48326741Y-50372419D01*
X48326741Y-50372419D02*
X48231503Y-50324800D01*
X48231503Y-50324800D02*
X48183884Y-50277180D01*
X48183884Y-50277180D02*
X48136265Y-50181942D01*
X48136265Y-50181942D02*
X48088646Y-49991466D01*
X48088646Y-49991466D02*
X48088646Y-49753371D01*
X48088646Y-49753371D02*
X48136265Y-49562895D01*
X48136265Y-49562895D02*
X48183884Y-49467657D01*
X48183884Y-49467657D02*
X48231503Y-49420038D01*
X48231503Y-49420038D02*
X48326741Y-49372419D01*
X77375312Y-57872419D02*
X77041979Y-57396228D01*
X76803884Y-57872419D02*
X76803884Y-56872419D01*
X76803884Y-56872419D02*
X77184836Y-56872419D01*
X77184836Y-56872419D02*
X77280074Y-56920038D01*
X77280074Y-56920038D02*
X77327693Y-56967657D01*
X77327693Y-56967657D02*
X77375312Y-57062895D01*
X77375312Y-57062895D02*
X77375312Y-57205752D01*
X77375312Y-57205752D02*
X77327693Y-57300990D01*
X77327693Y-57300990D02*
X77280074Y-57348609D01*
X77280074Y-57348609D02*
X77184836Y-57396228D01*
X77184836Y-57396228D02*
X76803884Y-57396228D01*
X77661027Y-56872419D02*
X77994360Y-57872419D01*
X77994360Y-57872419D02*
X78327693Y-56872419D01*
X79089598Y-57205752D02*
X79089598Y-57872419D01*
X78851503Y-56824800D02*
X78613408Y-57539085D01*
X78613408Y-57539085D02*
X79232455Y-57539085D01*
D11*
X58859580Y-139166666D02*
X58907200Y-139214285D01*
X58907200Y-139214285D02*
X58954819Y-139357142D01*
X58954819Y-139357142D02*
X58954819Y-139452380D01*
X58954819Y-139452380D02*
X58907200Y-139595237D01*
X58907200Y-139595237D02*
X58811961Y-139690475D01*
X58811961Y-139690475D02*
X58716723Y-139738094D01*
X58716723Y-139738094D02*
X58526247Y-139785713D01*
X58526247Y-139785713D02*
X58383390Y-139785713D01*
X58383390Y-139785713D02*
X58192914Y-139738094D01*
X58192914Y-139738094D02*
X58097676Y-139690475D01*
X58097676Y-139690475D02*
X58002438Y-139595237D01*
X58002438Y-139595237D02*
X57954819Y-139452380D01*
X57954819Y-139452380D02*
X57954819Y-139357142D01*
X57954819Y-139357142D02*
X58002438Y-139214285D01*
X58002438Y-139214285D02*
X58050057Y-139166666D01*
X57954819Y-138261904D02*
X57954819Y-138738094D01*
X57954819Y-138738094D02*
X58431009Y-138785713D01*
X58431009Y-138785713D02*
X58383390Y-138738094D01*
X58383390Y-138738094D02*
X58335771Y-138642856D01*
X58335771Y-138642856D02*
X58335771Y-138404761D01*
X58335771Y-138404761D02*
X58383390Y-138309523D01*
X58383390Y-138309523D02*
X58431009Y-138261904D01*
X58431009Y-138261904D02*
X58526247Y-138214285D01*
X58526247Y-138214285D02*
X58764342Y-138214285D01*
X58764342Y-138214285D02*
X58859580Y-138261904D01*
X58859580Y-138261904D02*
X58907200Y-138309523D01*
X58907200Y-138309523D02*
X58954819Y-138404761D01*
X58954819Y-138404761D02*
X58954819Y-138642856D01*
X58954819Y-138642856D02*
X58907200Y-138738094D01*
X58907200Y-138738094D02*
X58859580Y-138785713D01*
X69404761Y-90454819D02*
X69071428Y-89978628D01*
X68833333Y-90454819D02*
X68833333Y-89454819D01*
X68833333Y-89454819D02*
X69214285Y-89454819D01*
X69214285Y-89454819D02*
X69309523Y-89502438D01*
X69309523Y-89502438D02*
X69357142Y-89550057D01*
X69357142Y-89550057D02*
X69404761Y-89645295D01*
X69404761Y-89645295D02*
X69404761Y-89788152D01*
X69404761Y-89788152D02*
X69357142Y-89883390D01*
X69357142Y-89883390D02*
X69309523Y-89931009D01*
X69309523Y-89931009D02*
X69214285Y-89978628D01*
X69214285Y-89978628D02*
X68833333Y-89978628D01*
X69690476Y-89454819D02*
X70023809Y-90454819D01*
X70023809Y-90454819D02*
X70357142Y-89454819D01*
X71119047Y-89454819D02*
X70928571Y-89454819D01*
X70928571Y-89454819D02*
X70833333Y-89502438D01*
X70833333Y-89502438D02*
X70785714Y-89550057D01*
X70785714Y-89550057D02*
X70690476Y-89692914D01*
X70690476Y-89692914D02*
X70642857Y-89883390D01*
X70642857Y-89883390D02*
X70642857Y-90264342D01*
X70642857Y-90264342D02*
X70690476Y-90359580D01*
X70690476Y-90359580D02*
X70738095Y-90407200D01*
X70738095Y-90407200D02*
X70833333Y-90454819D01*
X70833333Y-90454819D02*
X71023809Y-90454819D01*
X71023809Y-90454819D02*
X71119047Y-90407200D01*
X71119047Y-90407200D02*
X71166666Y-90359580D01*
X71166666Y-90359580D02*
X71214285Y-90264342D01*
X71214285Y-90264342D02*
X71214285Y-90026247D01*
X71214285Y-90026247D02*
X71166666Y-89931009D01*
X71166666Y-89931009D02*
X71119047Y-89883390D01*
X71119047Y-89883390D02*
X71023809Y-89835771D01*
X71023809Y-89835771D02*
X70833333Y-89835771D01*
X70833333Y-89835771D02*
X70738095Y-89883390D01*
X70738095Y-89883390D02*
X70690476Y-89931009D01*
X70690476Y-89931009D02*
X70642857Y-90026247D01*
X43333333Y-115954819D02*
X43000000Y-115478628D01*
X42761905Y-115954819D02*
X42761905Y-114954819D01*
X42761905Y-114954819D02*
X43142857Y-114954819D01*
X43142857Y-114954819D02*
X43238095Y-115002438D01*
X43238095Y-115002438D02*
X43285714Y-115050057D01*
X43285714Y-115050057D02*
X43333333Y-115145295D01*
X43333333Y-115145295D02*
X43333333Y-115288152D01*
X43333333Y-115288152D02*
X43285714Y-115383390D01*
X43285714Y-115383390D02*
X43238095Y-115431009D01*
X43238095Y-115431009D02*
X43142857Y-115478628D01*
X43142857Y-115478628D02*
X42761905Y-115478628D01*
X43714286Y-115050057D02*
X43761905Y-115002438D01*
X43761905Y-115002438D02*
X43857143Y-114954819D01*
X43857143Y-114954819D02*
X44095238Y-114954819D01*
X44095238Y-114954819D02*
X44190476Y-115002438D01*
X44190476Y-115002438D02*
X44238095Y-115050057D01*
X44238095Y-115050057D02*
X44285714Y-115145295D01*
X44285714Y-115145295D02*
X44285714Y-115240533D01*
X44285714Y-115240533D02*
X44238095Y-115383390D01*
X44238095Y-115383390D02*
X43666667Y-115954819D01*
X43666667Y-115954819D02*
X44285714Y-115954819D01*
X58833333Y-76454819D02*
X58500000Y-75978628D01*
X58261905Y-76454819D02*
X58261905Y-75454819D01*
X58261905Y-75454819D02*
X58642857Y-75454819D01*
X58642857Y-75454819D02*
X58738095Y-75502438D01*
X58738095Y-75502438D02*
X58785714Y-75550057D01*
X58785714Y-75550057D02*
X58833333Y-75645295D01*
X58833333Y-75645295D02*
X58833333Y-75788152D01*
X58833333Y-75788152D02*
X58785714Y-75883390D01*
X58785714Y-75883390D02*
X58738095Y-75931009D01*
X58738095Y-75931009D02*
X58642857Y-75978628D01*
X58642857Y-75978628D02*
X58261905Y-75978628D01*
X59166667Y-75454819D02*
X59785714Y-75454819D01*
X59785714Y-75454819D02*
X59452381Y-75835771D01*
X59452381Y-75835771D02*
X59595238Y-75835771D01*
X59595238Y-75835771D02*
X59690476Y-75883390D01*
X59690476Y-75883390D02*
X59738095Y-75931009D01*
X59738095Y-75931009D02*
X59785714Y-76026247D01*
X59785714Y-76026247D02*
X59785714Y-76264342D01*
X59785714Y-76264342D02*
X59738095Y-76359580D01*
X59738095Y-76359580D02*
X59690476Y-76407200D01*
X59690476Y-76407200D02*
X59595238Y-76454819D01*
X59595238Y-76454819D02*
X59309524Y-76454819D01*
X59309524Y-76454819D02*
X59214286Y-76407200D01*
X59214286Y-76407200D02*
X59166667Y-76359580D01*
X69324819Y-127666666D02*
X68848628Y-127999999D01*
X69324819Y-128238094D02*
X68324819Y-128238094D01*
X68324819Y-128238094D02*
X68324819Y-127857142D01*
X68324819Y-127857142D02*
X68372438Y-127761904D01*
X68372438Y-127761904D02*
X68420057Y-127714285D01*
X68420057Y-127714285D02*
X68515295Y-127666666D01*
X68515295Y-127666666D02*
X68658152Y-127666666D01*
X68658152Y-127666666D02*
X68753390Y-127714285D01*
X68753390Y-127714285D02*
X68801009Y-127761904D01*
X68801009Y-127761904D02*
X68848628Y-127857142D01*
X68848628Y-127857142D02*
X68848628Y-128238094D01*
X68658152Y-126809523D02*
X69324819Y-126809523D01*
X68277200Y-127047618D02*
X68991485Y-127285713D01*
X68991485Y-127285713D02*
X68991485Y-126666666D01*
X59238095Y-106954819D02*
X59238095Y-107764342D01*
X59238095Y-107764342D02*
X59285714Y-107859580D01*
X59285714Y-107859580D02*
X59333333Y-107907200D01*
X59333333Y-107907200D02*
X59428571Y-107954819D01*
X59428571Y-107954819D02*
X59619047Y-107954819D01*
X59619047Y-107954819D02*
X59714285Y-107907200D01*
X59714285Y-107907200D02*
X59761904Y-107859580D01*
X59761904Y-107859580D02*
X59809523Y-107764342D01*
X59809523Y-107764342D02*
X59809523Y-106954819D01*
X60190476Y-106954819D02*
X60809523Y-106954819D01*
X60809523Y-106954819D02*
X60476190Y-107335771D01*
X60476190Y-107335771D02*
X60619047Y-107335771D01*
X60619047Y-107335771D02*
X60714285Y-107383390D01*
X60714285Y-107383390D02*
X60761904Y-107431009D01*
X60761904Y-107431009D02*
X60809523Y-107526247D01*
X60809523Y-107526247D02*
X60809523Y-107764342D01*
X60809523Y-107764342D02*
X60761904Y-107859580D01*
X60761904Y-107859580D02*
X60714285Y-107907200D01*
X60714285Y-107907200D02*
X60619047Y-107954819D01*
X60619047Y-107954819D02*
X60333333Y-107954819D01*
X60333333Y-107954819D02*
X60238095Y-107907200D01*
X60238095Y-107907200D02*
X60190476Y-107859580D01*
X72359580Y-116961554D02*
X72407200Y-117009173D01*
X72407200Y-117009173D02*
X72454819Y-117152030D01*
X72454819Y-117152030D02*
X72454819Y-117247268D01*
X72454819Y-117247268D02*
X72407200Y-117390125D01*
X72407200Y-117390125D02*
X72311961Y-117485363D01*
X72311961Y-117485363D02*
X72216723Y-117532982D01*
X72216723Y-117532982D02*
X72026247Y-117580601D01*
X72026247Y-117580601D02*
X71883390Y-117580601D01*
X71883390Y-117580601D02*
X71692914Y-117532982D01*
X71692914Y-117532982D02*
X71597676Y-117485363D01*
X71597676Y-117485363D02*
X71502438Y-117390125D01*
X71502438Y-117390125D02*
X71454819Y-117247268D01*
X71454819Y-117247268D02*
X71454819Y-117152030D01*
X71454819Y-117152030D02*
X71502438Y-117009173D01*
X71502438Y-117009173D02*
X71550057Y-116961554D01*
X71454819Y-116628220D02*
X71454819Y-116009173D01*
X71454819Y-116009173D02*
X71835771Y-116342506D01*
X71835771Y-116342506D02*
X71835771Y-116199649D01*
X71835771Y-116199649D02*
X71883390Y-116104411D01*
X71883390Y-116104411D02*
X71931009Y-116056792D01*
X71931009Y-116056792D02*
X72026247Y-116009173D01*
X72026247Y-116009173D02*
X72264342Y-116009173D01*
X72264342Y-116009173D02*
X72359580Y-116056792D01*
X72359580Y-116056792D02*
X72407200Y-116104411D01*
X72407200Y-116104411D02*
X72454819Y-116199649D01*
X72454819Y-116199649D02*
X72454819Y-116485363D01*
X72454819Y-116485363D02*
X72407200Y-116580601D01*
X72407200Y-116580601D02*
X72359580Y-116628220D01*
X45833333Y-32859580D02*
X45785714Y-32907200D01*
X45785714Y-32907200D02*
X45642857Y-32954819D01*
X45642857Y-32954819D02*
X45547619Y-32954819D01*
X45547619Y-32954819D02*
X45404762Y-32907200D01*
X45404762Y-32907200D02*
X45309524Y-32811961D01*
X45309524Y-32811961D02*
X45261905Y-32716723D01*
X45261905Y-32716723D02*
X45214286Y-32526247D01*
X45214286Y-32526247D02*
X45214286Y-32383390D01*
X45214286Y-32383390D02*
X45261905Y-32192914D01*
X45261905Y-32192914D02*
X45309524Y-32097676D01*
X45309524Y-32097676D02*
X45404762Y-32002438D01*
X45404762Y-32002438D02*
X45547619Y-31954819D01*
X45547619Y-31954819D02*
X45642857Y-31954819D01*
X45642857Y-31954819D02*
X45785714Y-32002438D01*
X45785714Y-32002438D02*
X45833333Y-32050057D01*
X46166667Y-31954819D02*
X46833333Y-31954819D01*
X46833333Y-31954819D02*
X46404762Y-32954819D01*
X49404761Y-90454819D02*
X49071428Y-89978628D01*
X48833333Y-90454819D02*
X48833333Y-89454819D01*
X48833333Y-89454819D02*
X49214285Y-89454819D01*
X49214285Y-89454819D02*
X49309523Y-89502438D01*
X49309523Y-89502438D02*
X49357142Y-89550057D01*
X49357142Y-89550057D02*
X49404761Y-89645295D01*
X49404761Y-89645295D02*
X49404761Y-89788152D01*
X49404761Y-89788152D02*
X49357142Y-89883390D01*
X49357142Y-89883390D02*
X49309523Y-89931009D01*
X49309523Y-89931009D02*
X49214285Y-89978628D01*
X49214285Y-89978628D02*
X48833333Y-89978628D01*
X49690476Y-89454819D02*
X50023809Y-90454819D01*
X50023809Y-90454819D02*
X50357142Y-89454819D01*
X50595238Y-89454819D02*
X51214285Y-89454819D01*
X51214285Y-89454819D02*
X50880952Y-89835771D01*
X50880952Y-89835771D02*
X51023809Y-89835771D01*
X51023809Y-89835771D02*
X51119047Y-89883390D01*
X51119047Y-89883390D02*
X51166666Y-89931009D01*
X51166666Y-89931009D02*
X51214285Y-90026247D01*
X51214285Y-90026247D02*
X51214285Y-90264342D01*
X51214285Y-90264342D02*
X51166666Y-90359580D01*
X51166666Y-90359580D02*
X51119047Y-90407200D01*
X51119047Y-90407200D02*
X51023809Y-90454819D01*
X51023809Y-90454819D02*
X50738095Y-90454819D01*
X50738095Y-90454819D02*
X50642857Y-90407200D01*
X50642857Y-90407200D02*
X50595238Y-90359580D01*
X69404761Y-72454819D02*
X69071428Y-71978628D01*
X68833333Y-72454819D02*
X68833333Y-71454819D01*
X68833333Y-71454819D02*
X69214285Y-71454819D01*
X69214285Y-71454819D02*
X69309523Y-71502438D01*
X69309523Y-71502438D02*
X69357142Y-71550057D01*
X69357142Y-71550057D02*
X69404761Y-71645295D01*
X69404761Y-71645295D02*
X69404761Y-71788152D01*
X69404761Y-71788152D02*
X69357142Y-71883390D01*
X69357142Y-71883390D02*
X69309523Y-71931009D01*
X69309523Y-71931009D02*
X69214285Y-71978628D01*
X69214285Y-71978628D02*
X68833333Y-71978628D01*
X69690476Y-71454819D02*
X70023809Y-72454819D01*
X70023809Y-72454819D02*
X70357142Y-71454819D01*
X71166666Y-71454819D02*
X70690476Y-71454819D01*
X70690476Y-71454819D02*
X70642857Y-71931009D01*
X70642857Y-71931009D02*
X70690476Y-71883390D01*
X70690476Y-71883390D02*
X70785714Y-71835771D01*
X70785714Y-71835771D02*
X71023809Y-71835771D01*
X71023809Y-71835771D02*
X71119047Y-71883390D01*
X71119047Y-71883390D02*
X71166666Y-71931009D01*
X71166666Y-71931009D02*
X71214285Y-72026247D01*
X71214285Y-72026247D02*
X71214285Y-72264342D01*
X71214285Y-72264342D02*
X71166666Y-72359580D01*
X71166666Y-72359580D02*
X71119047Y-72407200D01*
X71119047Y-72407200D02*
X71023809Y-72454819D01*
X71023809Y-72454819D02*
X70785714Y-72454819D01*
X70785714Y-72454819D02*
X70690476Y-72407200D01*
X70690476Y-72407200D02*
X70642857Y-72359580D01*
X51109580Y-123416666D02*
X51157200Y-123464285D01*
X51157200Y-123464285D02*
X51204819Y-123607142D01*
X51204819Y-123607142D02*
X51204819Y-123702380D01*
X51204819Y-123702380D02*
X51157200Y-123845237D01*
X51157200Y-123845237D02*
X51061961Y-123940475D01*
X51061961Y-123940475D02*
X50966723Y-123988094D01*
X50966723Y-123988094D02*
X50776247Y-124035713D01*
X50776247Y-124035713D02*
X50633390Y-124035713D01*
X50633390Y-124035713D02*
X50442914Y-123988094D01*
X50442914Y-123988094D02*
X50347676Y-123940475D01*
X50347676Y-123940475D02*
X50252438Y-123845237D01*
X50252438Y-123845237D02*
X50204819Y-123702380D01*
X50204819Y-123702380D02*
X50204819Y-123607142D01*
X50204819Y-123607142D02*
X50252438Y-123464285D01*
X50252438Y-123464285D02*
X50300057Y-123416666D01*
X50204819Y-122559523D02*
X50204819Y-122749999D01*
X50204819Y-122749999D02*
X50252438Y-122845237D01*
X50252438Y-122845237D02*
X50300057Y-122892856D01*
X50300057Y-122892856D02*
X50442914Y-122988094D01*
X50442914Y-122988094D02*
X50633390Y-123035713D01*
X50633390Y-123035713D02*
X51014342Y-123035713D01*
X51014342Y-123035713D02*
X51109580Y-122988094D01*
X51109580Y-122988094D02*
X51157200Y-122940475D01*
X51157200Y-122940475D02*
X51204819Y-122845237D01*
X51204819Y-122845237D02*
X51204819Y-122654761D01*
X51204819Y-122654761D02*
X51157200Y-122559523D01*
X51157200Y-122559523D02*
X51109580Y-122511904D01*
X51109580Y-122511904D02*
X51014342Y-122464285D01*
X51014342Y-122464285D02*
X50776247Y-122464285D01*
X50776247Y-122464285D02*
X50681009Y-122511904D01*
X50681009Y-122511904D02*
X50633390Y-122559523D01*
X50633390Y-122559523D02*
X50585771Y-122654761D01*
X50585771Y-122654761D02*
X50585771Y-122845237D01*
X50585771Y-122845237D02*
X50633390Y-122940475D01*
X50633390Y-122940475D02*
X50681009Y-122988094D01*
X50681009Y-122988094D02*
X50776247Y-123035713D01*
X49857142Y-115859580D02*
X49809523Y-115907200D01*
X49809523Y-115907200D02*
X49666666Y-115954819D01*
X49666666Y-115954819D02*
X49571428Y-115954819D01*
X49571428Y-115954819D02*
X49428571Y-115907200D01*
X49428571Y-115907200D02*
X49333333Y-115811961D01*
X49333333Y-115811961D02*
X49285714Y-115716723D01*
X49285714Y-115716723D02*
X49238095Y-115526247D01*
X49238095Y-115526247D02*
X49238095Y-115383390D01*
X49238095Y-115383390D02*
X49285714Y-115192914D01*
X49285714Y-115192914D02*
X49333333Y-115097676D01*
X49333333Y-115097676D02*
X49428571Y-115002438D01*
X49428571Y-115002438D02*
X49571428Y-114954819D01*
X49571428Y-114954819D02*
X49666666Y-114954819D01*
X49666666Y-114954819D02*
X49809523Y-115002438D01*
X49809523Y-115002438D02*
X49857142Y-115050057D01*
X50809523Y-115954819D02*
X50238095Y-115954819D01*
X50523809Y-115954819D02*
X50523809Y-114954819D01*
X50523809Y-114954819D02*
X50428571Y-115097676D01*
X50428571Y-115097676D02*
X50333333Y-115192914D01*
X50333333Y-115192914D02*
X50238095Y-115240533D01*
X51190476Y-115050057D02*
X51238095Y-115002438D01*
X51238095Y-115002438D02*
X51333333Y-114954819D01*
X51333333Y-114954819D02*
X51571428Y-114954819D01*
X51571428Y-114954819D02*
X51666666Y-115002438D01*
X51666666Y-115002438D02*
X51714285Y-115050057D01*
X51714285Y-115050057D02*
X51761904Y-115145295D01*
X51761904Y-115145295D02*
X51761904Y-115240533D01*
X51761904Y-115240533D02*
X51714285Y-115383390D01*
X51714285Y-115383390D02*
X51142857Y-115954819D01*
X51142857Y-115954819D02*
X51761904Y-115954819D01*
X58333333Y-59454819D02*
X58000000Y-58978628D01*
X57761905Y-59454819D02*
X57761905Y-58454819D01*
X57761905Y-58454819D02*
X58142857Y-58454819D01*
X58142857Y-58454819D02*
X58238095Y-58502438D01*
X58238095Y-58502438D02*
X58285714Y-58550057D01*
X58285714Y-58550057D02*
X58333333Y-58645295D01*
X58333333Y-58645295D02*
X58333333Y-58788152D01*
X58333333Y-58788152D02*
X58285714Y-58883390D01*
X58285714Y-58883390D02*
X58238095Y-58931009D01*
X58238095Y-58931009D02*
X58142857Y-58978628D01*
X58142857Y-58978628D02*
X57761905Y-58978628D01*
X59285714Y-59454819D02*
X58714286Y-59454819D01*
X59000000Y-59454819D02*
X59000000Y-58454819D01*
X59000000Y-58454819D02*
X58904762Y-58597676D01*
X58904762Y-58597676D02*
X58809524Y-58692914D01*
X58809524Y-58692914D02*
X58714286Y-58740533D01*
X61833333Y-76454819D02*
X61500000Y-75978628D01*
X61261905Y-76454819D02*
X61261905Y-75454819D01*
X61261905Y-75454819D02*
X61642857Y-75454819D01*
X61642857Y-75454819D02*
X61738095Y-75502438D01*
X61738095Y-75502438D02*
X61785714Y-75550057D01*
X61785714Y-75550057D02*
X61833333Y-75645295D01*
X61833333Y-75645295D02*
X61833333Y-75788152D01*
X61833333Y-75788152D02*
X61785714Y-75883390D01*
X61785714Y-75883390D02*
X61738095Y-75931009D01*
X61738095Y-75931009D02*
X61642857Y-75978628D01*
X61642857Y-75978628D02*
X61261905Y-75978628D01*
X62309524Y-76454819D02*
X62500000Y-76454819D01*
X62500000Y-76454819D02*
X62595238Y-76407200D01*
X62595238Y-76407200D02*
X62642857Y-76359580D01*
X62642857Y-76359580D02*
X62738095Y-76216723D01*
X62738095Y-76216723D02*
X62785714Y-76026247D01*
X62785714Y-76026247D02*
X62785714Y-75645295D01*
X62785714Y-75645295D02*
X62738095Y-75550057D01*
X62738095Y-75550057D02*
X62690476Y-75502438D01*
X62690476Y-75502438D02*
X62595238Y-75454819D01*
X62595238Y-75454819D02*
X62404762Y-75454819D01*
X62404762Y-75454819D02*
X62309524Y-75502438D01*
X62309524Y-75502438D02*
X62261905Y-75550057D01*
X62261905Y-75550057D02*
X62214286Y-75645295D01*
X62214286Y-75645295D02*
X62214286Y-75883390D01*
X62214286Y-75883390D02*
X62261905Y-75978628D01*
X62261905Y-75978628D02*
X62309524Y-76026247D01*
X62309524Y-76026247D02*
X62404762Y-76073866D01*
X62404762Y-76073866D02*
X62595238Y-76073866D01*
X62595238Y-76073866D02*
X62690476Y-76026247D01*
X62690476Y-76026247D02*
X62738095Y-75978628D01*
X62738095Y-75978628D02*
X62785714Y-75883390D01*
X60857142Y-90954819D02*
X60523809Y-90478628D01*
X60285714Y-90954819D02*
X60285714Y-89954819D01*
X60285714Y-89954819D02*
X60666666Y-89954819D01*
X60666666Y-89954819D02*
X60761904Y-90002438D01*
X60761904Y-90002438D02*
X60809523Y-90050057D01*
X60809523Y-90050057D02*
X60857142Y-90145295D01*
X60857142Y-90145295D02*
X60857142Y-90288152D01*
X60857142Y-90288152D02*
X60809523Y-90383390D01*
X60809523Y-90383390D02*
X60761904Y-90431009D01*
X60761904Y-90431009D02*
X60666666Y-90478628D01*
X60666666Y-90478628D02*
X60285714Y-90478628D01*
X61809523Y-90954819D02*
X61238095Y-90954819D01*
X61523809Y-90954819D02*
X61523809Y-89954819D01*
X61523809Y-89954819D02*
X61428571Y-90097676D01*
X61428571Y-90097676D02*
X61333333Y-90192914D01*
X61333333Y-90192914D02*
X61238095Y-90240533D01*
X62190476Y-90050057D02*
X62238095Y-90002438D01*
X62238095Y-90002438D02*
X62333333Y-89954819D01*
X62333333Y-89954819D02*
X62571428Y-89954819D01*
X62571428Y-89954819D02*
X62666666Y-90002438D01*
X62666666Y-90002438D02*
X62714285Y-90050057D01*
X62714285Y-90050057D02*
X62761904Y-90145295D01*
X62761904Y-90145295D02*
X62761904Y-90240533D01*
X62761904Y-90240533D02*
X62714285Y-90383390D01*
X62714285Y-90383390D02*
X62142857Y-90954819D01*
X62142857Y-90954819D02*
X62761904Y-90954819D01*
X40954819Y-44761904D02*
X41764342Y-44761904D01*
X41764342Y-44761904D02*
X41859580Y-44714285D01*
X41859580Y-44714285D02*
X41907200Y-44666666D01*
X41907200Y-44666666D02*
X41954819Y-44571428D01*
X41954819Y-44571428D02*
X41954819Y-44380952D01*
X41954819Y-44380952D02*
X41907200Y-44285714D01*
X41907200Y-44285714D02*
X41859580Y-44238095D01*
X41859580Y-44238095D02*
X41764342Y-44190476D01*
X41764342Y-44190476D02*
X40954819Y-44190476D01*
X41954819Y-43190476D02*
X41954819Y-43761904D01*
X41954819Y-43476190D02*
X40954819Y-43476190D01*
X40954819Y-43476190D02*
X41097676Y-43571428D01*
X41097676Y-43571428D02*
X41192914Y-43666666D01*
X41192914Y-43666666D02*
X41240533Y-43761904D01*
X61333333Y-59454819D02*
X61000000Y-58978628D01*
X60761905Y-59454819D02*
X60761905Y-58454819D01*
X60761905Y-58454819D02*
X61142857Y-58454819D01*
X61142857Y-58454819D02*
X61238095Y-58502438D01*
X61238095Y-58502438D02*
X61285714Y-58550057D01*
X61285714Y-58550057D02*
X61333333Y-58645295D01*
X61333333Y-58645295D02*
X61333333Y-58788152D01*
X61333333Y-58788152D02*
X61285714Y-58883390D01*
X61285714Y-58883390D02*
X61238095Y-58931009D01*
X61238095Y-58931009D02*
X61142857Y-58978628D01*
X61142857Y-58978628D02*
X60761905Y-58978628D01*
X61666667Y-58454819D02*
X62333333Y-58454819D01*
X62333333Y-58454819D02*
X61904762Y-59454819D01*
X69333333Y-107859580D02*
X69285714Y-107907200D01*
X69285714Y-107907200D02*
X69142857Y-107954819D01*
X69142857Y-107954819D02*
X69047619Y-107954819D01*
X69047619Y-107954819D02*
X68904762Y-107907200D01*
X68904762Y-107907200D02*
X68809524Y-107811961D01*
X68809524Y-107811961D02*
X68761905Y-107716723D01*
X68761905Y-107716723D02*
X68714286Y-107526247D01*
X68714286Y-107526247D02*
X68714286Y-107383390D01*
X68714286Y-107383390D02*
X68761905Y-107192914D01*
X68761905Y-107192914D02*
X68809524Y-107097676D01*
X68809524Y-107097676D02*
X68904762Y-107002438D01*
X68904762Y-107002438D02*
X69047619Y-106954819D01*
X69047619Y-106954819D02*
X69142857Y-106954819D01*
X69142857Y-106954819D02*
X69285714Y-107002438D01*
X69285714Y-107002438D02*
X69333333Y-107050057D01*
X69809524Y-107954819D02*
X70000000Y-107954819D01*
X70000000Y-107954819D02*
X70095238Y-107907200D01*
X70095238Y-107907200D02*
X70142857Y-107859580D01*
X70142857Y-107859580D02*
X70238095Y-107716723D01*
X70238095Y-107716723D02*
X70285714Y-107526247D01*
X70285714Y-107526247D02*
X70285714Y-107145295D01*
X70285714Y-107145295D02*
X70238095Y-107050057D01*
X70238095Y-107050057D02*
X70190476Y-107002438D01*
X70190476Y-107002438D02*
X70095238Y-106954819D01*
X70095238Y-106954819D02*
X69904762Y-106954819D01*
X69904762Y-106954819D02*
X69809524Y-107002438D01*
X69809524Y-107002438D02*
X69761905Y-107050057D01*
X69761905Y-107050057D02*
X69714286Y-107145295D01*
X69714286Y-107145295D02*
X69714286Y-107383390D01*
X69714286Y-107383390D02*
X69761905Y-107478628D01*
X69761905Y-107478628D02*
X69809524Y-107526247D01*
X69809524Y-107526247D02*
X69904762Y-107573866D01*
X69904762Y-107573866D02*
X70095238Y-107573866D01*
X70095238Y-107573866D02*
X70190476Y-107526247D01*
X70190476Y-107526247D02*
X70238095Y-107478628D01*
X70238095Y-107478628D02*
X70285714Y-107383390D01*
X71357142Y-48764819D02*
X71023809Y-48288628D01*
X70785714Y-48764819D02*
X70785714Y-47764819D01*
X70785714Y-47764819D02*
X71166666Y-47764819D01*
X71166666Y-47764819D02*
X71261904Y-47812438D01*
X71261904Y-47812438D02*
X71309523Y-47860057D01*
X71309523Y-47860057D02*
X71357142Y-47955295D01*
X71357142Y-47955295D02*
X71357142Y-48098152D01*
X71357142Y-48098152D02*
X71309523Y-48193390D01*
X71309523Y-48193390D02*
X71261904Y-48241009D01*
X71261904Y-48241009D02*
X71166666Y-48288628D01*
X71166666Y-48288628D02*
X70785714Y-48288628D01*
X72309523Y-48764819D02*
X71738095Y-48764819D01*
X72023809Y-48764819D02*
X72023809Y-47764819D01*
X72023809Y-47764819D02*
X71928571Y-47907676D01*
X71928571Y-47907676D02*
X71833333Y-48002914D01*
X71833333Y-48002914D02*
X71738095Y-48050533D01*
X73261904Y-48764819D02*
X72690476Y-48764819D01*
X72976190Y-48764819D02*
X72976190Y-47764819D01*
X72976190Y-47764819D02*
X72880952Y-47907676D01*
X72880952Y-47907676D02*
X72785714Y-48002914D01*
X72785714Y-48002914D02*
X72690476Y-48050533D01*
X47109580Y-111916666D02*
X47157200Y-111964285D01*
X47157200Y-111964285D02*
X47204819Y-112107142D01*
X47204819Y-112107142D02*
X47204819Y-112202380D01*
X47204819Y-112202380D02*
X47157200Y-112345237D01*
X47157200Y-112345237D02*
X47061961Y-112440475D01*
X47061961Y-112440475D02*
X46966723Y-112488094D01*
X46966723Y-112488094D02*
X46776247Y-112535713D01*
X46776247Y-112535713D02*
X46633390Y-112535713D01*
X46633390Y-112535713D02*
X46442914Y-112488094D01*
X46442914Y-112488094D02*
X46347676Y-112440475D01*
X46347676Y-112440475D02*
X46252438Y-112345237D01*
X46252438Y-112345237D02*
X46204819Y-112202380D01*
X46204819Y-112202380D02*
X46204819Y-112107142D01*
X46204819Y-112107142D02*
X46252438Y-111964285D01*
X46252438Y-111964285D02*
X46300057Y-111916666D01*
X47204819Y-110964285D02*
X47204819Y-111535713D01*
X47204819Y-111249999D02*
X46204819Y-111249999D01*
X46204819Y-111249999D02*
X46347676Y-111345237D01*
X46347676Y-111345237D02*
X46442914Y-111440475D01*
X46442914Y-111440475D02*
X46490533Y-111535713D01*
X44016666Y-141454819D02*
X44016666Y-142169104D01*
X44016666Y-142169104D02*
X43969047Y-142311961D01*
X43969047Y-142311961D02*
X43873809Y-142407200D01*
X43873809Y-142407200D02*
X43730952Y-142454819D01*
X43730952Y-142454819D02*
X43635714Y-142454819D01*
X45016666Y-142454819D02*
X44445238Y-142454819D01*
X44730952Y-142454819D02*
X44730952Y-141454819D01*
X44730952Y-141454819D02*
X44635714Y-141597676D01*
X44635714Y-141597676D02*
X44540476Y-141692914D01*
X44540476Y-141692914D02*
X44445238Y-141740533D01*
X49404761Y-72454819D02*
X49071428Y-71978628D01*
X48833333Y-72454819D02*
X48833333Y-71454819D01*
X48833333Y-71454819D02*
X49214285Y-71454819D01*
X49214285Y-71454819D02*
X49309523Y-71502438D01*
X49309523Y-71502438D02*
X49357142Y-71550057D01*
X49357142Y-71550057D02*
X49404761Y-71645295D01*
X49404761Y-71645295D02*
X49404761Y-71788152D01*
X49404761Y-71788152D02*
X49357142Y-71883390D01*
X49357142Y-71883390D02*
X49309523Y-71931009D01*
X49309523Y-71931009D02*
X49214285Y-71978628D01*
X49214285Y-71978628D02*
X48833333Y-71978628D01*
X49690476Y-71454819D02*
X50023809Y-72454819D01*
X50023809Y-72454819D02*
X50357142Y-71454819D01*
X50642857Y-71550057D02*
X50690476Y-71502438D01*
X50690476Y-71502438D02*
X50785714Y-71454819D01*
X50785714Y-71454819D02*
X51023809Y-71454819D01*
X51023809Y-71454819D02*
X51119047Y-71502438D01*
X51119047Y-71502438D02*
X51166666Y-71550057D01*
X51166666Y-71550057D02*
X51214285Y-71645295D01*
X51214285Y-71645295D02*
X51214285Y-71740533D01*
X51214285Y-71740533D02*
X51166666Y-71883390D01*
X51166666Y-71883390D02*
X50595238Y-72454819D01*
X50595238Y-72454819D02*
X51214285Y-72454819D01*
D10*
X59166667Y-32909800D02*
X59309524Y-32957419D01*
X59309524Y-32957419D02*
X59547619Y-32957419D01*
X59547619Y-32957419D02*
X59642857Y-32909800D01*
X59642857Y-32909800D02*
X59690476Y-32862180D01*
X59690476Y-32862180D02*
X59738095Y-32766942D01*
X59738095Y-32766942D02*
X59738095Y-32671704D01*
X59738095Y-32671704D02*
X59690476Y-32576466D01*
X59690476Y-32576466D02*
X59642857Y-32528847D01*
X59642857Y-32528847D02*
X59547619Y-32481228D01*
X59547619Y-32481228D02*
X59357143Y-32433609D01*
X59357143Y-32433609D02*
X59261905Y-32385990D01*
X59261905Y-32385990D02*
X59214286Y-32338371D01*
X59214286Y-32338371D02*
X59166667Y-32243133D01*
X59166667Y-32243133D02*
X59166667Y-32147895D01*
X59166667Y-32147895D02*
X59214286Y-32052657D01*
X59214286Y-32052657D02*
X59261905Y-32005038D01*
X59261905Y-32005038D02*
X59357143Y-31957419D01*
X59357143Y-31957419D02*
X59595238Y-31957419D01*
X59595238Y-31957419D02*
X59738095Y-32005038D01*
X60071429Y-31957419D02*
X60309524Y-32957419D01*
X60309524Y-32957419D02*
X60500000Y-32243133D01*
X60500000Y-32243133D02*
X60690476Y-32957419D01*
X60690476Y-32957419D02*
X60928572Y-31957419D01*
X61833333Y-32957419D02*
X61261905Y-32957419D01*
X61547619Y-32957419D02*
X61547619Y-31957419D01*
X61547619Y-31957419D02*
X61452381Y-32100276D01*
X61452381Y-32100276D02*
X61357143Y-32195514D01*
X61357143Y-32195514D02*
X61261905Y-32243133D01*
D11*
X67166666Y-138954819D02*
X67166666Y-139669104D01*
X67166666Y-139669104D02*
X67119047Y-139811961D01*
X67119047Y-139811961D02*
X67023809Y-139907200D01*
X67023809Y-139907200D02*
X66880952Y-139954819D01*
X66880952Y-139954819D02*
X66785714Y-139954819D01*
X67595238Y-139050057D02*
X67642857Y-139002438D01*
X67642857Y-139002438D02*
X67738095Y-138954819D01*
X67738095Y-138954819D02*
X67976190Y-138954819D01*
X67976190Y-138954819D02*
X68071428Y-139002438D01*
X68071428Y-139002438D02*
X68119047Y-139050057D01*
X68119047Y-139050057D02*
X68166666Y-139145295D01*
X68166666Y-139145295D02*
X68166666Y-139240533D01*
X68166666Y-139240533D02*
X68119047Y-139383390D01*
X68119047Y-139383390D02*
X67547619Y-139954819D01*
X67547619Y-139954819D02*
X68166666Y-139954819D01*
X58333333Y-90954819D02*
X58000000Y-90478628D01*
X57761905Y-90954819D02*
X57761905Y-89954819D01*
X57761905Y-89954819D02*
X58142857Y-89954819D01*
X58142857Y-89954819D02*
X58238095Y-90002438D01*
X58238095Y-90002438D02*
X58285714Y-90050057D01*
X58285714Y-90050057D02*
X58333333Y-90145295D01*
X58333333Y-90145295D02*
X58333333Y-90288152D01*
X58333333Y-90288152D02*
X58285714Y-90383390D01*
X58285714Y-90383390D02*
X58238095Y-90431009D01*
X58238095Y-90431009D02*
X58142857Y-90478628D01*
X58142857Y-90478628D02*
X57761905Y-90478628D01*
X59238095Y-89954819D02*
X58761905Y-89954819D01*
X58761905Y-89954819D02*
X58714286Y-90431009D01*
X58714286Y-90431009D02*
X58761905Y-90383390D01*
X58761905Y-90383390D02*
X58857143Y-90335771D01*
X58857143Y-90335771D02*
X59095238Y-90335771D01*
X59095238Y-90335771D02*
X59190476Y-90383390D01*
X59190476Y-90383390D02*
X59238095Y-90431009D01*
X59238095Y-90431009D02*
X59285714Y-90526247D01*
X59285714Y-90526247D02*
X59285714Y-90764342D01*
X59285714Y-90764342D02*
X59238095Y-90859580D01*
X59238095Y-90859580D02*
X59190476Y-90907200D01*
X59190476Y-90907200D02*
X59095238Y-90954819D01*
X59095238Y-90954819D02*
X58857143Y-90954819D01*
X58857143Y-90954819D02*
X58761905Y-90907200D01*
X58761905Y-90907200D02*
X58714286Y-90859580D01*
D12*
%TO.C,C5*%
X53960000Y-138990000D02*
X52431000Y-138990000D01*
X53960000Y-139030000D02*
X52435000Y-139030000D01*
X53960000Y-139070000D02*
X52440000Y-139070000D01*
X53960000Y-139110000D02*
X52445000Y-139110000D01*
X53960000Y-139150000D02*
X52451000Y-139150000D01*
X53960000Y-139190000D02*
X52457000Y-139190000D01*
X53960000Y-139230000D02*
X52464000Y-139230000D01*
X53960000Y-139270000D02*
X52472000Y-139270000D01*
X53960000Y-139310000D02*
X52481000Y-139310000D01*
X53960000Y-139350000D02*
X52490000Y-139350000D01*
X53960000Y-139390000D02*
X52499000Y-139390000D01*
X53960000Y-139430000D02*
X52510000Y-139430000D01*
X53960000Y-139470000D02*
X52521000Y-139470000D01*
X53960000Y-139510000D02*
X52533000Y-139510000D01*
X53960000Y-139550000D02*
X52545000Y-139550000D01*
X53960000Y-139590000D02*
X52558000Y-139590000D01*
X53960000Y-139630000D02*
X52572000Y-139630000D01*
X53960000Y-139670000D02*
X52587000Y-139670000D01*
X53960000Y-139710000D02*
X52602000Y-139710000D01*
X53960000Y-139750000D02*
X52618000Y-139750000D01*
X53960000Y-139790000D02*
X52635000Y-139790000D01*
X53960000Y-139830000D02*
X52653000Y-139830000D01*
X53960000Y-139870000D02*
X52671000Y-139870000D01*
X53960000Y-139910000D02*
X52691000Y-139910000D01*
X53960000Y-139950000D02*
X52711000Y-139950000D01*
X53960000Y-139990000D02*
X52732000Y-139990000D01*
X53960000Y-140030000D02*
X52754000Y-140030000D01*
X53960000Y-140070000D02*
X52777000Y-140070000D01*
X53960000Y-140110000D02*
X52801000Y-140110000D01*
X53960000Y-140150000D02*
X52825000Y-140150000D01*
X53960000Y-140190000D02*
X52851000Y-140190000D01*
X53960000Y-140230000D02*
X52878000Y-140230000D01*
X53960000Y-140270000D02*
X52906000Y-140270000D01*
X53960000Y-140310000D02*
X52935000Y-140310000D01*
X53960000Y-140350000D02*
X52965000Y-140350000D01*
X53960000Y-140390000D02*
X52997000Y-140390000D01*
X53960000Y-140430000D02*
X53030000Y-140430000D01*
X53960000Y-140470000D02*
X53064000Y-140470000D01*
X53960000Y-140510000D02*
X53099000Y-140510000D01*
X53960000Y-140550000D02*
X53136000Y-140550000D01*
X53960000Y-140590000D02*
X53175000Y-140590000D01*
X53960000Y-140630000D02*
X53215000Y-140630000D01*
X53960000Y-140670000D02*
X53257000Y-140670000D01*
X53960000Y-140710000D02*
X53301000Y-140710000D01*
X53960000Y-140750000D02*
X53348000Y-140750000D01*
X53960000Y-140790000D02*
X53396000Y-140790000D01*
X53960000Y-140830000D02*
X53447000Y-140830000D01*
X53960000Y-140870000D02*
X53501000Y-140870000D01*
X53960000Y-140910000D02*
X53557000Y-140910000D01*
X53960000Y-140950000D02*
X53617000Y-140950000D01*
X53960000Y-140990000D02*
X53681000Y-140990000D01*
X53960000Y-141030000D02*
X53749000Y-141030000D01*
X55283000Y-141350000D02*
X54717000Y-141350000D01*
X55517000Y-141310000D02*
X54483000Y-141310000D01*
X55677000Y-141270000D02*
X54323000Y-141270000D01*
X55805000Y-141230000D02*
X54195000Y-141230000D01*
X55914000Y-141190000D02*
X54086000Y-141190000D01*
X56011000Y-141150000D02*
X53989000Y-141150000D01*
X56098000Y-141110000D02*
X53902000Y-141110000D01*
X56177000Y-141070000D02*
X53823000Y-141070000D01*
X56251000Y-141030000D02*
X56040000Y-141030000D01*
X56319000Y-140990000D02*
X56040000Y-140990000D01*
X56383000Y-140950000D02*
X56040000Y-140950000D01*
X56443000Y-140910000D02*
X56040000Y-140910000D01*
X56475000Y-135945225D02*
X56475000Y-136445225D01*
X56499000Y-140870000D02*
X56040000Y-140870000D01*
X56553000Y-140830000D02*
X56040000Y-140830000D01*
X56604000Y-140790000D02*
X56040000Y-140790000D01*
X56652000Y-140750000D02*
X56040000Y-140750000D01*
X56699000Y-140710000D02*
X56040000Y-140710000D01*
X56725000Y-136195225D02*
X56225000Y-136195225D01*
X56743000Y-140670000D02*
X56040000Y-140670000D01*
X56785000Y-140630000D02*
X56040000Y-140630000D01*
X56825000Y-140590000D02*
X56040000Y-140590000D01*
X56864000Y-140550000D02*
X56040000Y-140550000D01*
X56901000Y-140510000D02*
X56040000Y-140510000D01*
X56936000Y-140470000D02*
X56040000Y-140470000D01*
X56970000Y-140430000D02*
X56040000Y-140430000D01*
X57003000Y-140390000D02*
X56040000Y-140390000D01*
X57035000Y-140350000D02*
X56040000Y-140350000D01*
X57065000Y-140310000D02*
X56040000Y-140310000D01*
X57094000Y-140270000D02*
X56040000Y-140270000D01*
X57122000Y-140230000D02*
X56040000Y-140230000D01*
X57149000Y-140190000D02*
X56040000Y-140190000D01*
X57175000Y-140150000D02*
X56040000Y-140150000D01*
X57199000Y-140110000D02*
X56040000Y-140110000D01*
X57223000Y-140070000D02*
X56040000Y-140070000D01*
X57246000Y-140030000D02*
X56040000Y-140030000D01*
X57268000Y-139990000D02*
X56040000Y-139990000D01*
X57289000Y-139950000D02*
X56040000Y-139950000D01*
X57309000Y-139910000D02*
X56040000Y-139910000D01*
X57329000Y-139870000D02*
X56040000Y-139870000D01*
X57347000Y-139830000D02*
X56040000Y-139830000D01*
X57365000Y-139790000D02*
X56040000Y-139790000D01*
X57382000Y-139750000D02*
X56040000Y-139750000D01*
X57398000Y-139710000D02*
X56040000Y-139710000D01*
X57413000Y-139670000D02*
X56040000Y-139670000D01*
X57428000Y-139630000D02*
X56040000Y-139630000D01*
X57442000Y-139590000D02*
X56040000Y-139590000D01*
X57455000Y-139550000D02*
X56040000Y-139550000D01*
X57467000Y-139510000D02*
X56040000Y-139510000D01*
X57479000Y-139470000D02*
X56040000Y-139470000D01*
X57490000Y-139430000D02*
X56040000Y-139430000D01*
X57501000Y-139390000D02*
X56040000Y-139390000D01*
X57510000Y-139350000D02*
X56040000Y-139350000D01*
X57519000Y-139310000D02*
X56040000Y-139310000D01*
X57528000Y-139270000D02*
X56040000Y-139270000D01*
X57536000Y-139230000D02*
X56040000Y-139230000D01*
X57543000Y-139190000D02*
X56040000Y-139190000D01*
X57549000Y-139150000D02*
X56040000Y-139150000D01*
X57555000Y-139110000D02*
X56040000Y-139110000D01*
X57560000Y-139070000D02*
X56040000Y-139070000D01*
X57565000Y-139030000D02*
X56040000Y-139030000D01*
X57569000Y-138990000D02*
X56040000Y-138990000D01*
X57572000Y-138950000D02*
X52428000Y-138950000D01*
X57575000Y-138910000D02*
X52425000Y-138910000D01*
X57577000Y-138870000D02*
X52423000Y-138870000D01*
X57579000Y-138830000D02*
X52421000Y-138830000D01*
X57580000Y-138750000D02*
X52420000Y-138750000D01*
X57580000Y-138790000D02*
X52420000Y-138790000D01*
X57620000Y-138750000D02*
G75*
G02*
X52380000Y-138750000I-2620000J0D01*
G01*
X52380000Y-138750000D02*
G75*
G02*
X57620000Y-138750000I2620000J0D01*
G01*
%TO.C,RV6*%
X65120000Y-102595000D02*
X65120000Y-97875000D01*
X65130000Y-94065000D02*
X65130000Y-91005000D01*
X66310000Y-102595000D02*
X65130000Y-102595000D01*
X69210000Y-102595000D02*
X68680000Y-102595000D01*
X71660000Y-102595000D02*
X70830000Y-102595000D01*
X74870000Y-91005000D02*
X65130000Y-91005000D01*
X74870000Y-94065000D02*
X74870000Y-91005000D01*
X74870000Y-102595000D02*
X73380000Y-102595000D01*
X74870000Y-102595000D02*
X74870000Y-97875000D01*
%TO.C,R2*%
X42130000Y-117730000D02*
X42130000Y-124270000D01*
X42130000Y-124270000D02*
X42460000Y-124270000D01*
X42460000Y-117730000D02*
X42130000Y-117730000D01*
X44540000Y-117730000D02*
X44870000Y-117730000D01*
X44870000Y-117730000D02*
X44870000Y-124270000D01*
X44870000Y-124270000D02*
X44540000Y-124270000D01*
%TO.C,R6*%
X40630000Y-58230000D02*
X40960000Y-58230000D01*
X40630000Y-64770000D02*
X40630000Y-58230000D01*
X40960000Y-64770000D02*
X40630000Y-64770000D01*
X43040000Y-64770000D02*
X43370000Y-64770000D01*
X43370000Y-58230000D02*
X43040000Y-58230000D01*
X43370000Y-64770000D02*
X43370000Y-58230000D01*
%TO.C,R3*%
X57630000Y-78730000D02*
X57630000Y-85270000D01*
X57630000Y-85270000D02*
X57960000Y-85270000D01*
X57960000Y-78730000D02*
X57630000Y-78730000D01*
X60040000Y-78730000D02*
X60370000Y-78730000D01*
X60370000Y-78730000D02*
X60370000Y-85270000D01*
X60370000Y-85270000D02*
X60040000Y-85270000D01*
%TO.C,R4*%
X65130000Y-124230000D02*
X65130000Y-130770000D01*
X65130000Y-130770000D02*
X65460000Y-130770000D01*
X65460000Y-124230000D02*
X65130000Y-124230000D01*
X67540000Y-124230000D02*
X67870000Y-124230000D01*
X67870000Y-124230000D02*
X67870000Y-130770000D01*
X67870000Y-130770000D02*
X67540000Y-130770000D01*
%TO.C,U3*%
X57750000Y-109110000D02*
X57750000Y-119390000D01*
X57750000Y-119390000D02*
X62250000Y-119390000D01*
X59000000Y-109110000D02*
X57750000Y-109110000D01*
X62250000Y-109110000D02*
X61000000Y-109110000D01*
X62250000Y-119390000D02*
X62250000Y-109110000D01*
X61000000Y-109110000D02*
G75*
G02*
X59000000Y-109110000I-1000000J0D01*
G01*
%TO.C,C3*%
X65420000Y-116710000D02*
X70580000Y-116710000D01*
X65420000Y-116750000D02*
X70580000Y-116750000D01*
X65421000Y-116670000D02*
X70579000Y-116670000D01*
X65423000Y-116630000D02*
X70577000Y-116630000D01*
X65425000Y-116590000D02*
X70575000Y-116590000D01*
X65428000Y-116550000D02*
X70572000Y-116550000D01*
X65431000Y-116510000D02*
X66960000Y-116510000D01*
X65435000Y-116470000D02*
X66960000Y-116470000D01*
X65440000Y-116430000D02*
X66960000Y-116430000D01*
X65445000Y-116390000D02*
X66960000Y-116390000D01*
X65451000Y-116350000D02*
X66960000Y-116350000D01*
X65457000Y-116310000D02*
X66960000Y-116310000D01*
X65464000Y-116270000D02*
X66960000Y-116270000D01*
X65472000Y-116230000D02*
X66960000Y-116230000D01*
X65481000Y-116190000D02*
X66960000Y-116190000D01*
X65490000Y-116150000D02*
X66960000Y-116150000D01*
X65499000Y-116110000D02*
X66960000Y-116110000D01*
X65510000Y-116070000D02*
X66960000Y-116070000D01*
X65521000Y-116030000D02*
X66960000Y-116030000D01*
X65533000Y-115990000D02*
X66960000Y-115990000D01*
X65545000Y-115950000D02*
X66960000Y-115950000D01*
X65558000Y-115910000D02*
X66960000Y-115910000D01*
X65572000Y-115870000D02*
X66960000Y-115870000D01*
X65587000Y-115830000D02*
X66960000Y-115830000D01*
X65602000Y-115790000D02*
X66960000Y-115790000D01*
X65618000Y-115750000D02*
X66960000Y-115750000D01*
X65635000Y-115710000D02*
X66960000Y-115710000D01*
X65653000Y-115670000D02*
X66960000Y-115670000D01*
X65671000Y-115630000D02*
X66960000Y-115630000D01*
X65691000Y-115590000D02*
X66960000Y-115590000D01*
X65711000Y-115550000D02*
X66960000Y-115550000D01*
X65732000Y-115510000D02*
X66960000Y-115510000D01*
X65754000Y-115470000D02*
X66960000Y-115470000D01*
X65777000Y-115430000D02*
X66960000Y-115430000D01*
X65801000Y-115390000D02*
X66960000Y-115390000D01*
X65825000Y-115350000D02*
X66960000Y-115350000D01*
X65851000Y-115310000D02*
X66960000Y-115310000D01*
X65878000Y-115270000D02*
X66960000Y-115270000D01*
X65906000Y-115230000D02*
X66960000Y-115230000D01*
X65935000Y-115190000D02*
X66960000Y-115190000D01*
X65965000Y-115150000D02*
X66960000Y-115150000D01*
X65997000Y-115110000D02*
X66960000Y-115110000D01*
X66030000Y-115070000D02*
X66960000Y-115070000D01*
X66064000Y-115030000D02*
X66960000Y-115030000D01*
X66099000Y-114990000D02*
X66960000Y-114990000D01*
X66136000Y-114950000D02*
X66960000Y-114950000D01*
X66175000Y-114910000D02*
X66960000Y-114910000D01*
X66215000Y-114870000D02*
X66960000Y-114870000D01*
X66257000Y-114830000D02*
X66960000Y-114830000D01*
X66275000Y-119304775D02*
X66775000Y-119304775D01*
X66301000Y-114790000D02*
X66960000Y-114790000D01*
X66348000Y-114750000D02*
X66960000Y-114750000D01*
X66396000Y-114710000D02*
X66960000Y-114710000D01*
X66447000Y-114670000D02*
X66960000Y-114670000D01*
X66501000Y-114630000D02*
X66960000Y-114630000D01*
X66525000Y-119554775D02*
X66525000Y-119054775D01*
X66557000Y-114590000D02*
X66960000Y-114590000D01*
X66617000Y-114550000D02*
X66960000Y-114550000D01*
X66681000Y-114510000D02*
X66960000Y-114510000D01*
X66749000Y-114470000D02*
X66960000Y-114470000D01*
X66823000Y-114430000D02*
X69177000Y-114430000D01*
X66902000Y-114390000D02*
X69098000Y-114390000D01*
X66989000Y-114350000D02*
X69011000Y-114350000D01*
X67086000Y-114310000D02*
X68914000Y-114310000D01*
X67195000Y-114270000D02*
X68805000Y-114270000D01*
X67323000Y-114230000D02*
X68677000Y-114230000D01*
X67483000Y-114190000D02*
X68517000Y-114190000D01*
X67717000Y-114150000D02*
X68283000Y-114150000D01*
X69040000Y-114470000D02*
X69251000Y-114470000D01*
X69040000Y-114510000D02*
X69319000Y-114510000D01*
X69040000Y-114550000D02*
X69383000Y-114550000D01*
X69040000Y-114590000D02*
X69443000Y-114590000D01*
X69040000Y-114630000D02*
X69499000Y-114630000D01*
X69040000Y-114670000D02*
X69553000Y-114670000D01*
X69040000Y-114710000D02*
X69604000Y-114710000D01*
X69040000Y-114750000D02*
X69652000Y-114750000D01*
X69040000Y-114790000D02*
X69699000Y-114790000D01*
X69040000Y-114830000D02*
X69743000Y-114830000D01*
X69040000Y-114870000D02*
X69785000Y-114870000D01*
X69040000Y-114910000D02*
X69825000Y-114910000D01*
X69040000Y-114950000D02*
X69864000Y-114950000D01*
X69040000Y-114990000D02*
X69901000Y-114990000D01*
X69040000Y-115030000D02*
X69936000Y-115030000D01*
X69040000Y-115070000D02*
X69970000Y-115070000D01*
X69040000Y-115110000D02*
X70003000Y-115110000D01*
X69040000Y-115150000D02*
X70035000Y-115150000D01*
X69040000Y-115190000D02*
X70065000Y-115190000D01*
X69040000Y-115230000D02*
X70094000Y-115230000D01*
X69040000Y-115270000D02*
X70122000Y-115270000D01*
X69040000Y-115310000D02*
X70149000Y-115310000D01*
X69040000Y-115350000D02*
X70175000Y-115350000D01*
X69040000Y-115390000D02*
X70199000Y-115390000D01*
X69040000Y-115430000D02*
X70223000Y-115430000D01*
X69040000Y-115470000D02*
X70246000Y-115470000D01*
X69040000Y-115510000D02*
X70268000Y-115510000D01*
X69040000Y-115550000D02*
X70289000Y-115550000D01*
X69040000Y-115590000D02*
X70309000Y-115590000D01*
X69040000Y-115630000D02*
X70329000Y-115630000D01*
X69040000Y-115670000D02*
X70347000Y-115670000D01*
X69040000Y-115710000D02*
X70365000Y-115710000D01*
X69040000Y-115750000D02*
X70382000Y-115750000D01*
X69040000Y-115790000D02*
X70398000Y-115790000D01*
X69040000Y-115830000D02*
X70413000Y-115830000D01*
X69040000Y-115870000D02*
X70428000Y-115870000D01*
X69040000Y-115910000D02*
X70442000Y-115910000D01*
X69040000Y-115950000D02*
X70455000Y-115950000D01*
X69040000Y-115990000D02*
X70467000Y-115990000D01*
X69040000Y-116030000D02*
X70479000Y-116030000D01*
X69040000Y-116070000D02*
X70490000Y-116070000D01*
X69040000Y-116110000D02*
X70501000Y-116110000D01*
X69040000Y-116150000D02*
X70510000Y-116150000D01*
X69040000Y-116190000D02*
X70519000Y-116190000D01*
X69040000Y-116230000D02*
X70528000Y-116230000D01*
X69040000Y-116270000D02*
X70536000Y-116270000D01*
X69040000Y-116310000D02*
X70543000Y-116310000D01*
X69040000Y-116350000D02*
X70549000Y-116350000D01*
X69040000Y-116390000D02*
X70555000Y-116390000D01*
X69040000Y-116430000D02*
X70560000Y-116430000D01*
X69040000Y-116470000D02*
X70565000Y-116470000D01*
X69040000Y-116510000D02*
X70569000Y-116510000D01*
X70620000Y-116750000D02*
G75*
G02*
X65380000Y-116750000I-2620000J0D01*
G01*
X65380000Y-116750000D02*
G75*
G02*
X70620000Y-116750000I2620000J0D01*
G01*
%TO.C,RV4*%
X65120000Y-67450000D02*
X65120000Y-62730000D01*
X65130000Y-58920000D02*
X65130000Y-55860000D01*
X66310000Y-67450000D02*
X65130000Y-67450000D01*
X69210000Y-67450000D02*
X68680000Y-67450000D01*
X71660000Y-67450000D02*
X70830000Y-67450000D01*
X74870000Y-55860000D02*
X65130000Y-55860000D01*
X74870000Y-58920000D02*
X74870000Y-55860000D01*
X74870000Y-67450000D02*
X73380000Y-67450000D01*
X74870000Y-67450000D02*
X74870000Y-62730000D01*
%TO.C,C7*%
X42880000Y-33630000D02*
X49120000Y-33630000D01*
X42880000Y-34165000D02*
X42880000Y-33630000D01*
X42880000Y-36370000D02*
X42880000Y-35835000D01*
X49120000Y-33630000D02*
X49120000Y-34165000D01*
X49120000Y-35835000D02*
X49120000Y-36370000D01*
X49120000Y-36370000D02*
X42880000Y-36370000D01*
%TO.C,RV3*%
X45320000Y-102595000D02*
X45320000Y-97875000D01*
X45330000Y-94065000D02*
X45330000Y-91005000D01*
X46510000Y-102595000D02*
X45330000Y-102595000D01*
X49410000Y-102595000D02*
X48880000Y-102595000D01*
X51860000Y-102595000D02*
X51030000Y-102595000D01*
X55070000Y-91005000D02*
X45330000Y-91005000D01*
X55070000Y-94065000D02*
X55070000Y-91005000D01*
X55070000Y-102595000D02*
X53580000Y-102595000D01*
X55070000Y-102595000D02*
X55070000Y-97875000D01*
%TO.C,RV5*%
X65120000Y-84870000D02*
X65120000Y-80150000D01*
X65130000Y-76340000D02*
X65130000Y-73280000D01*
X66310000Y-84870000D02*
X65130000Y-84870000D01*
X69210000Y-84870000D02*
X68680000Y-84870000D01*
X71660000Y-84870000D02*
X70830000Y-84870000D01*
X74870000Y-73280000D02*
X65130000Y-73280000D01*
X74870000Y-76340000D02*
X74870000Y-73280000D01*
X74870000Y-84870000D02*
X73380000Y-84870000D01*
X74870000Y-84870000D02*
X74870000Y-80150000D01*
%TO.C,C6*%
X51920000Y-123210000D02*
X57080000Y-123210000D01*
X51920000Y-123250000D02*
X57080000Y-123250000D01*
X51921000Y-123170000D02*
X57079000Y-123170000D01*
X51923000Y-123130000D02*
X57077000Y-123130000D01*
X51925000Y-123090000D02*
X57075000Y-123090000D01*
X51928000Y-123050000D02*
X57072000Y-123050000D01*
X51931000Y-123010000D02*
X53460000Y-123010000D01*
X51935000Y-122970000D02*
X53460000Y-122970000D01*
X51940000Y-122930000D02*
X53460000Y-122930000D01*
X51945000Y-122890000D02*
X53460000Y-122890000D01*
X51951000Y-122850000D02*
X53460000Y-122850000D01*
X51957000Y-122810000D02*
X53460000Y-122810000D01*
X51964000Y-122770000D02*
X53460000Y-122770000D01*
X51972000Y-122730000D02*
X53460000Y-122730000D01*
X51981000Y-122690000D02*
X53460000Y-122690000D01*
X51990000Y-122650000D02*
X53460000Y-122650000D01*
X51999000Y-122610000D02*
X53460000Y-122610000D01*
X52010000Y-122570000D02*
X53460000Y-122570000D01*
X52021000Y-122530000D02*
X53460000Y-122530000D01*
X52033000Y-122490000D02*
X53460000Y-122490000D01*
X52045000Y-122450000D02*
X53460000Y-122450000D01*
X52058000Y-122410000D02*
X53460000Y-122410000D01*
X52072000Y-122370000D02*
X53460000Y-122370000D01*
X52087000Y-122330000D02*
X53460000Y-122330000D01*
X52102000Y-122290000D02*
X53460000Y-122290000D01*
X52118000Y-122250000D02*
X53460000Y-122250000D01*
X52135000Y-122210000D02*
X53460000Y-122210000D01*
X52153000Y-122170000D02*
X53460000Y-122170000D01*
X52171000Y-122130000D02*
X53460000Y-122130000D01*
X52191000Y-122090000D02*
X53460000Y-122090000D01*
X52211000Y-122050000D02*
X53460000Y-122050000D01*
X52232000Y-122010000D02*
X53460000Y-122010000D01*
X52254000Y-121970000D02*
X53460000Y-121970000D01*
X52277000Y-121930000D02*
X53460000Y-121930000D01*
X52301000Y-121890000D02*
X53460000Y-121890000D01*
X52325000Y-121850000D02*
X53460000Y-121850000D01*
X52351000Y-121810000D02*
X53460000Y-121810000D01*
X52378000Y-121770000D02*
X53460000Y-121770000D01*
X52406000Y-121730000D02*
X53460000Y-121730000D01*
X52435000Y-121690000D02*
X53460000Y-121690000D01*
X52465000Y-121650000D02*
X53460000Y-121650000D01*
X52497000Y-121610000D02*
X53460000Y-121610000D01*
X52530000Y-121570000D02*
X53460000Y-121570000D01*
X52564000Y-121530000D02*
X53460000Y-121530000D01*
X52599000Y-121490000D02*
X53460000Y-121490000D01*
X52636000Y-121450000D02*
X53460000Y-121450000D01*
X52675000Y-121410000D02*
X53460000Y-121410000D01*
X52715000Y-121370000D02*
X53460000Y-121370000D01*
X52757000Y-121330000D02*
X53460000Y-121330000D01*
X52775000Y-125804775D02*
X53275000Y-125804775D01*
X52801000Y-121290000D02*
X53460000Y-121290000D01*
X52848000Y-121250000D02*
X53460000Y-121250000D01*
X52896000Y-121210000D02*
X53460000Y-121210000D01*
X52947000Y-121170000D02*
X53460000Y-121170000D01*
X53001000Y-121130000D02*
X53460000Y-121130000D01*
X53025000Y-126054775D02*
X53025000Y-125554775D01*
X53057000Y-121090000D02*
X53460000Y-121090000D01*
X53117000Y-121050000D02*
X53460000Y-121050000D01*
X53181000Y-121010000D02*
X53460000Y-121010000D01*
X53249000Y-120970000D02*
X53460000Y-120970000D01*
X53323000Y-120930000D02*
X55677000Y-120930000D01*
X53402000Y-120890000D02*
X55598000Y-120890000D01*
X53489000Y-120850000D02*
X55511000Y-120850000D01*
X53586000Y-120810000D02*
X55414000Y-120810000D01*
X53695000Y-120770000D02*
X55305000Y-120770000D01*
X53823000Y-120730000D02*
X55177000Y-120730000D01*
X53983000Y-120690000D02*
X55017000Y-120690000D01*
X54217000Y-120650000D02*
X54783000Y-120650000D01*
X55540000Y-120970000D02*
X55751000Y-120970000D01*
X55540000Y-121010000D02*
X55819000Y-121010000D01*
X55540000Y-121050000D02*
X55883000Y-121050000D01*
X55540000Y-121090000D02*
X55943000Y-121090000D01*
X55540000Y-121130000D02*
X55999000Y-121130000D01*
X55540000Y-121170000D02*
X56053000Y-121170000D01*
X55540000Y-121210000D02*
X56104000Y-121210000D01*
X55540000Y-121250000D02*
X56152000Y-121250000D01*
X55540000Y-121290000D02*
X56199000Y-121290000D01*
X55540000Y-121330000D02*
X56243000Y-121330000D01*
X55540000Y-121370000D02*
X56285000Y-121370000D01*
X55540000Y-121410000D02*
X56325000Y-121410000D01*
X55540000Y-121450000D02*
X56364000Y-121450000D01*
X55540000Y-121490000D02*
X56401000Y-121490000D01*
X55540000Y-121530000D02*
X56436000Y-121530000D01*
X55540000Y-121570000D02*
X56470000Y-121570000D01*
X55540000Y-121610000D02*
X56503000Y-121610000D01*
X55540000Y-121650000D02*
X56535000Y-121650000D01*
X55540000Y-121690000D02*
X56565000Y-121690000D01*
X55540000Y-121730000D02*
X56594000Y-121730000D01*
X55540000Y-121770000D02*
X56622000Y-121770000D01*
X55540000Y-121810000D02*
X56649000Y-121810000D01*
X55540000Y-121850000D02*
X56675000Y-121850000D01*
X55540000Y-121890000D02*
X56699000Y-121890000D01*
X55540000Y-121930000D02*
X56723000Y-121930000D01*
X55540000Y-121970000D02*
X56746000Y-121970000D01*
X55540000Y-122010000D02*
X56768000Y-122010000D01*
X55540000Y-122050000D02*
X56789000Y-122050000D01*
X55540000Y-122090000D02*
X56809000Y-122090000D01*
X55540000Y-122130000D02*
X56829000Y-122130000D01*
X55540000Y-122170000D02*
X56847000Y-122170000D01*
X55540000Y-122210000D02*
X56865000Y-122210000D01*
X55540000Y-122250000D02*
X56882000Y-122250000D01*
X55540000Y-122290000D02*
X56898000Y-122290000D01*
X55540000Y-122330000D02*
X56913000Y-122330000D01*
X55540000Y-122370000D02*
X56928000Y-122370000D01*
X55540000Y-122410000D02*
X56942000Y-122410000D01*
X55540000Y-122450000D02*
X56955000Y-122450000D01*
X55540000Y-122490000D02*
X56967000Y-122490000D01*
X55540000Y-122530000D02*
X56979000Y-122530000D01*
X55540000Y-122570000D02*
X56990000Y-122570000D01*
X55540000Y-122610000D02*
X57001000Y-122610000D01*
X55540000Y-122650000D02*
X57010000Y-122650000D01*
X55540000Y-122690000D02*
X57019000Y-122690000D01*
X55540000Y-122730000D02*
X57028000Y-122730000D01*
X55540000Y-122770000D02*
X57036000Y-122770000D01*
X55540000Y-122810000D02*
X57043000Y-122810000D01*
X55540000Y-122850000D02*
X57049000Y-122850000D01*
X55540000Y-122890000D02*
X57055000Y-122890000D01*
X55540000Y-122930000D02*
X57060000Y-122930000D01*
X55540000Y-122970000D02*
X57065000Y-122970000D01*
X55540000Y-123010000D02*
X57069000Y-123010000D01*
X57120000Y-123250000D02*
G75*
G02*
X51880000Y-123250000I-2620000J0D01*
G01*
X51880000Y-123250000D02*
G75*
G02*
X57120000Y-123250000I2620000J0D01*
G01*
%TO.C,C12*%
X47380000Y-116630000D02*
X53620000Y-116630000D01*
X47380000Y-117165000D02*
X47380000Y-116630000D01*
X47380000Y-119370000D02*
X47380000Y-118835000D01*
X53620000Y-116630000D02*
X53620000Y-117165000D01*
X53620000Y-118835000D02*
X53620000Y-119370000D01*
X53620000Y-119370000D02*
X47380000Y-119370000D01*
%TO.C,R1*%
X57130000Y-61420000D02*
X57130000Y-67960000D01*
X57130000Y-67960000D02*
X57460000Y-67960000D01*
X57460000Y-61420000D02*
X57130000Y-61420000D01*
X59540000Y-61420000D02*
X59870000Y-61420000D01*
X59870000Y-61420000D02*
X59870000Y-67960000D01*
X59870000Y-67960000D02*
X59540000Y-67960000D01*
%TO.C,R9*%
X60630000Y-78730000D02*
X60630000Y-85270000D01*
X60630000Y-85270000D02*
X60960000Y-85270000D01*
X60960000Y-78730000D02*
X60630000Y-78730000D01*
X63040000Y-78730000D02*
X63370000Y-78730000D01*
X63370000Y-78730000D02*
X63370000Y-85270000D01*
X63370000Y-85270000D02*
X63040000Y-85270000D01*
%TO.C,R12*%
X60130000Y-92730000D02*
X60130000Y-99270000D01*
X60130000Y-99270000D02*
X60460000Y-99270000D01*
X60460000Y-92730000D02*
X60130000Y-92730000D01*
X62540000Y-92730000D02*
X62870000Y-92730000D01*
X62870000Y-92730000D02*
X62870000Y-99270000D01*
X62870000Y-99270000D02*
X62540000Y-99270000D01*
%TO.C,U1*%
X42360000Y-41750000D02*
X42360000Y-43000000D01*
X42360000Y-45000000D02*
X42360000Y-46250000D01*
X42360000Y-46250000D02*
X52640000Y-46250000D01*
X52640000Y-41750000D02*
X42360000Y-41750000D01*
X52640000Y-46250000D02*
X52640000Y-41750000D01*
X42360000Y-43000000D02*
G75*
G02*
X42360000Y-45000000I0J-1000000D01*
G01*
%TO.C,R7*%
X60130000Y-61420000D02*
X60130000Y-67960000D01*
X60130000Y-67960000D02*
X60460000Y-67960000D01*
X60460000Y-61420000D02*
X60130000Y-61420000D01*
X62540000Y-61420000D02*
X62870000Y-61420000D01*
X62870000Y-61420000D02*
X62870000Y-67960000D01*
X62870000Y-67960000D02*
X62540000Y-67960000D01*
%TO.C,C9*%
X66380000Y-108630000D02*
X72620000Y-108630000D01*
X66380000Y-109165000D02*
X66380000Y-108630000D01*
X66380000Y-111370000D02*
X66380000Y-110835000D01*
X72620000Y-108630000D02*
X72620000Y-109165000D01*
X72620000Y-110835000D02*
X72620000Y-111370000D01*
X72620000Y-111370000D02*
X66380000Y-111370000D01*
%TO.C,R11*%
X67130000Y-45040000D02*
X67460000Y-45040000D01*
X67130000Y-51580000D02*
X67130000Y-45040000D01*
X67460000Y-51580000D02*
X67130000Y-51580000D01*
X69540000Y-51580000D02*
X69870000Y-51580000D01*
X69870000Y-45040000D02*
X69540000Y-45040000D01*
X69870000Y-51580000D02*
X69870000Y-45040000D01*
%TO.C,C1*%
X47920000Y-111710000D02*
X53080000Y-111710000D01*
X47920000Y-111750000D02*
X53080000Y-111750000D01*
X47921000Y-111670000D02*
X53079000Y-111670000D01*
X47923000Y-111630000D02*
X53077000Y-111630000D01*
X47925000Y-111590000D02*
X53075000Y-111590000D01*
X47928000Y-111550000D02*
X53072000Y-111550000D01*
X47931000Y-111510000D02*
X49460000Y-111510000D01*
X47935000Y-111470000D02*
X49460000Y-111470000D01*
X47940000Y-111430000D02*
X49460000Y-111430000D01*
X47945000Y-111390000D02*
X49460000Y-111390000D01*
X47951000Y-111350000D02*
X49460000Y-111350000D01*
X47957000Y-111310000D02*
X49460000Y-111310000D01*
X47964000Y-111270000D02*
X49460000Y-111270000D01*
X47972000Y-111230000D02*
X49460000Y-111230000D01*
X47981000Y-111190000D02*
X49460000Y-111190000D01*
X47990000Y-111150000D02*
X49460000Y-111150000D01*
X47999000Y-111110000D02*
X49460000Y-111110000D01*
X48010000Y-111070000D02*
X49460000Y-111070000D01*
X48021000Y-111030000D02*
X49460000Y-111030000D01*
X48033000Y-110990000D02*
X49460000Y-110990000D01*
X48045000Y-110950000D02*
X49460000Y-110950000D01*
X48058000Y-110910000D02*
X49460000Y-110910000D01*
X48072000Y-110870000D02*
X49460000Y-110870000D01*
X48087000Y-110830000D02*
X49460000Y-110830000D01*
X48102000Y-110790000D02*
X49460000Y-110790000D01*
X48118000Y-110750000D02*
X49460000Y-110750000D01*
X48135000Y-110710000D02*
X49460000Y-110710000D01*
X48153000Y-110670000D02*
X49460000Y-110670000D01*
X48171000Y-110630000D02*
X49460000Y-110630000D01*
X48191000Y-110590000D02*
X49460000Y-110590000D01*
X48211000Y-110550000D02*
X49460000Y-110550000D01*
X48232000Y-110510000D02*
X49460000Y-110510000D01*
X48254000Y-110470000D02*
X49460000Y-110470000D01*
X48277000Y-110430000D02*
X49460000Y-110430000D01*
X48301000Y-110390000D02*
X49460000Y-110390000D01*
X48325000Y-110350000D02*
X49460000Y-110350000D01*
X48351000Y-110310000D02*
X49460000Y-110310000D01*
X48378000Y-110270000D02*
X49460000Y-110270000D01*
X48406000Y-110230000D02*
X49460000Y-110230000D01*
X48435000Y-110190000D02*
X49460000Y-110190000D01*
X48465000Y-110150000D02*
X49460000Y-110150000D01*
X48497000Y-110110000D02*
X49460000Y-110110000D01*
X48530000Y-110070000D02*
X49460000Y-110070000D01*
X48564000Y-110030000D02*
X49460000Y-110030000D01*
X48599000Y-109990000D02*
X49460000Y-109990000D01*
X48636000Y-109950000D02*
X49460000Y-109950000D01*
X48675000Y-109910000D02*
X49460000Y-109910000D01*
X48715000Y-109870000D02*
X49460000Y-109870000D01*
X48757000Y-109830000D02*
X49460000Y-109830000D01*
X48775000Y-114304775D02*
X49275000Y-114304775D01*
X48801000Y-109790000D02*
X49460000Y-109790000D01*
X48848000Y-109750000D02*
X49460000Y-109750000D01*
X48896000Y-109710000D02*
X49460000Y-109710000D01*
X48947000Y-109670000D02*
X49460000Y-109670000D01*
X49001000Y-109630000D02*
X49460000Y-109630000D01*
X49025000Y-114554775D02*
X49025000Y-114054775D01*
X49057000Y-109590000D02*
X49460000Y-109590000D01*
X49117000Y-109550000D02*
X49460000Y-109550000D01*
X49181000Y-109510000D02*
X49460000Y-109510000D01*
X49249000Y-109470000D02*
X49460000Y-109470000D01*
X49323000Y-109430000D02*
X51677000Y-109430000D01*
X49402000Y-109390000D02*
X51598000Y-109390000D01*
X49489000Y-109350000D02*
X51511000Y-109350000D01*
X49586000Y-109310000D02*
X51414000Y-109310000D01*
X49695000Y-109270000D02*
X51305000Y-109270000D01*
X49823000Y-109230000D02*
X51177000Y-109230000D01*
X49983000Y-109190000D02*
X51017000Y-109190000D01*
X50217000Y-109150000D02*
X50783000Y-109150000D01*
X51540000Y-109470000D02*
X51751000Y-109470000D01*
X51540000Y-109510000D02*
X51819000Y-109510000D01*
X51540000Y-109550000D02*
X51883000Y-109550000D01*
X51540000Y-109590000D02*
X51943000Y-109590000D01*
X51540000Y-109630000D02*
X51999000Y-109630000D01*
X51540000Y-109670000D02*
X52053000Y-109670000D01*
X51540000Y-109710000D02*
X52104000Y-109710000D01*
X51540000Y-109750000D02*
X52152000Y-109750000D01*
X51540000Y-109790000D02*
X52199000Y-109790000D01*
X51540000Y-109830000D02*
X52243000Y-109830000D01*
X51540000Y-109870000D02*
X52285000Y-109870000D01*
X51540000Y-109910000D02*
X52325000Y-109910000D01*
X51540000Y-109950000D02*
X52364000Y-109950000D01*
X51540000Y-109990000D02*
X52401000Y-109990000D01*
X51540000Y-110030000D02*
X52436000Y-110030000D01*
X51540000Y-110070000D02*
X52470000Y-110070000D01*
X51540000Y-110110000D02*
X52503000Y-110110000D01*
X51540000Y-110150000D02*
X52535000Y-110150000D01*
X51540000Y-110190000D02*
X52565000Y-110190000D01*
X51540000Y-110230000D02*
X52594000Y-110230000D01*
X51540000Y-110270000D02*
X52622000Y-110270000D01*
X51540000Y-110310000D02*
X52649000Y-110310000D01*
X51540000Y-110350000D02*
X52675000Y-110350000D01*
X51540000Y-110390000D02*
X52699000Y-110390000D01*
X51540000Y-110430000D02*
X52723000Y-110430000D01*
X51540000Y-110470000D02*
X52746000Y-110470000D01*
X51540000Y-110510000D02*
X52768000Y-110510000D01*
X51540000Y-110550000D02*
X52789000Y-110550000D01*
X51540000Y-110590000D02*
X52809000Y-110590000D01*
X51540000Y-110630000D02*
X52829000Y-110630000D01*
X51540000Y-110670000D02*
X52847000Y-110670000D01*
X51540000Y-110710000D02*
X52865000Y-110710000D01*
X51540000Y-110750000D02*
X52882000Y-110750000D01*
X51540000Y-110790000D02*
X52898000Y-110790000D01*
X51540000Y-110830000D02*
X52913000Y-110830000D01*
X51540000Y-110870000D02*
X52928000Y-110870000D01*
X51540000Y-110910000D02*
X52942000Y-110910000D01*
X51540000Y-110950000D02*
X52955000Y-110950000D01*
X51540000Y-110990000D02*
X52967000Y-110990000D01*
X51540000Y-111030000D02*
X52979000Y-111030000D01*
X51540000Y-111070000D02*
X52990000Y-111070000D01*
X51540000Y-111110000D02*
X53001000Y-111110000D01*
X51540000Y-111150000D02*
X53010000Y-111150000D01*
X51540000Y-111190000D02*
X53019000Y-111190000D01*
X51540000Y-111230000D02*
X53028000Y-111230000D01*
X51540000Y-111270000D02*
X53036000Y-111270000D01*
X51540000Y-111310000D02*
X53043000Y-111310000D01*
X51540000Y-111350000D02*
X53049000Y-111350000D01*
X51540000Y-111390000D02*
X53055000Y-111390000D01*
X51540000Y-111430000D02*
X53060000Y-111430000D01*
X51540000Y-111470000D02*
X53065000Y-111470000D01*
X51540000Y-111510000D02*
X53069000Y-111510000D01*
X53120000Y-111750000D02*
G75*
G02*
X47880000Y-111750000I-2620000J0D01*
G01*
X47880000Y-111750000D02*
G75*
G02*
X53120000Y-111750000I2620000J0D01*
G01*
%TO.C,RV1*%
X45320000Y-67450000D02*
X45320000Y-62730000D01*
X45330000Y-58920000D02*
X45330000Y-55860000D01*
X46510000Y-67450000D02*
X45330000Y-67450000D01*
X49410000Y-67450000D02*
X48880000Y-67450000D01*
X51860000Y-67450000D02*
X51030000Y-67450000D01*
X55070000Y-55860000D02*
X45330000Y-55860000D01*
X55070000Y-58920000D02*
X55070000Y-55860000D01*
X55070000Y-67450000D02*
X53580000Y-67450000D01*
X55070000Y-67450000D02*
X55070000Y-62730000D01*
%TO.C,J1*%
X42500000Y-129830000D02*
X42500000Y-140330000D01*
X45770000Y-126680000D02*
X45770000Y-127480000D01*
X45770000Y-126680000D02*
X46630000Y-126680000D01*
X46200000Y-140330000D02*
X42500000Y-140330000D01*
X46280000Y-129830000D02*
X42500000Y-129830000D01*
X51500000Y-129830000D02*
X47720000Y-129830000D01*
X51500000Y-129830000D02*
X51500000Y-140330000D01*
X51500000Y-140330000D02*
X47800000Y-140330000D01*
X48800000Y-134330000D02*
G75*
G02*
X45200000Y-134330000I-1800000J0D01*
G01*
X45200000Y-134330000D02*
G75*
G02*
X48800000Y-134330000I1800000J0D01*
G01*
%TO.C,RV2*%
X45320000Y-84870000D02*
X45320000Y-80150000D01*
X45330000Y-76340000D02*
X45330000Y-73280000D01*
X46510000Y-84870000D02*
X45330000Y-84870000D01*
X49410000Y-84870000D02*
X48880000Y-84870000D01*
X51860000Y-84870000D02*
X51030000Y-84870000D01*
X55070000Y-73280000D02*
X45330000Y-73280000D01*
X55070000Y-76340000D02*
X55070000Y-73280000D01*
X55070000Y-84870000D02*
X53580000Y-84870000D01*
X55070000Y-84870000D02*
X55070000Y-80150000D01*
%TO.C,J2*%
X69000000Y-129830000D02*
X69000000Y-140330000D01*
X72270000Y-126680000D02*
X72270000Y-127480000D01*
X72270000Y-126680000D02*
X73130000Y-126680000D01*
X72700000Y-140330000D02*
X69000000Y-140330000D01*
X72780000Y-129830000D02*
X69000000Y-129830000D01*
X78000000Y-129830000D02*
X74220000Y-129830000D01*
X78000000Y-129830000D02*
X78000000Y-140330000D01*
X78000000Y-140330000D02*
X74300000Y-140330000D01*
X75300000Y-134330000D02*
G75*
G02*
X71700000Y-134330000I-1800000J0D01*
G01*
X71700000Y-134330000D02*
G75*
G02*
X75300000Y-134330000I1800000J0D01*
G01*
%TO.C,C10*%
X45880000Y-51630000D02*
X52120000Y-51630000D01*
X45880000Y-52165000D02*
X45880000Y-51630000D01*
X45880000Y-54370000D02*
X45880000Y-53835000D01*
X52120000Y-51630000D02*
X52120000Y-52165000D01*
X52120000Y-53835000D02*
X52120000Y-54370000D01*
X52120000Y-54370000D02*
X45880000Y-54370000D01*
%TO.C,R5*%
X57130000Y-92730000D02*
X57130000Y-99270000D01*
X57130000Y-99270000D02*
X57460000Y-99270000D01*
X57460000Y-92730000D02*
X57130000Y-92730000D01*
X59540000Y-92730000D02*
X59870000Y-92730000D01*
X59870000Y-92730000D02*
X59870000Y-99270000D01*
X59870000Y-99270000D02*
X59540000Y-99270000D01*
%TD*%
M02*
