M48
; DRILL file {KiCad 9.0.3+dfsg-1} date 2026-01-10T12:59:00+0100
; FORMAT={-:-/ absolute / metric / decimal}
; #@! TF.CreationDate,2026-01-10T12:59:00+01:00
; #@! TF.GenerationSoftware,Kicad,Pcbnew,9.0.3+dfsg-1
; #@! TF.FileFunction,Plated,1,2,PTH
FMAT,2
METRIC
; #@! TA.AperFunction,Plated,PTH,ViaDrill
T1C0.300
; #@! TA.AperFunction,Plated,PTH,ComponentDrill
T2C0.800
; #@! TA.AperFunction,Plated,PTH,ComponentDrill
T3C1.000
; #@! TA.AperFunction,Plated,PTH,ComponentDrill
T4C1.100
; #@! TA.AperFunction,Plated,PTH,ComponentDrill
T5C1.220
; #@! TA.AperFunction,Plated,PTH,ComponentDrill
T6C1.420
; #@! TA.AperFunction,Plated,PTH,ComponentDrill
T7C1.430
; #@! TA.AperFunction,Plated,PTH,ComponentDrill
T8C1.500
%
G90
G05
T1
X41.5Y-71.5
X42.5Y-51.0
X43.5Y-67.0
X44.0Y-54.0
X44.5Y-71.5
X46.5Y-64.0
X49.5Y-45.5
X51.5Y-43.5
X51.5Y-56.5
X52.5Y-59.5
X54.0Y-54.0
X54.0Y-71.5
X55.0Y-69.0
X56.0Y-56.0
X64.5Y-67.5
X64.5Y-69.5
X66.0Y-55.0
X74.0Y-55.0
X75.0Y-71.5
X78.5Y-71.5
T2
X42.0Y-57.69
X42.0Y-65.31
X43.5Y-35.0
X43.5Y-117.19
X43.5Y-124.81
X43.69Y-40.19
X43.69Y-47.81
X46.23Y-40.19
X46.23Y-47.81
X46.5Y-53.0
X48.0Y-118.0
X48.5Y-35.0
X48.77Y-40.19
X48.77Y-47.81
X50.5Y-110.5
X50.5Y-113.0
X51.31Y-40.19
X51.31Y-47.81
X51.5Y-53.0
X53.0Y-118.0
X54.5Y-122.0
X54.5Y-124.5
X55.0Y-137.5
X55.0Y-140.0
X56.19Y-110.44
X56.19Y-112.98
X56.19Y-115.52
X56.19Y-118.06
X58.5Y-60.88
X58.5Y-68.5
X58.5Y-92.19
X58.5Y-99.81
X59.0Y-78.19
X59.0Y-85.81
X61.5Y-60.88
X61.5Y-68.5
X61.5Y-92.19
X61.5Y-99.81
X62.0Y-78.19
X62.0Y-85.81
X63.81Y-110.44
X63.81Y-112.98
X63.81Y-115.52
X63.81Y-118.06
X66.5Y-123.69
X66.5Y-131.31
X67.0Y-110.0
X68.0Y-115.5
X68.0Y-118.0
X68.5Y-44.5
X68.5Y-52.12
X72.0Y-110.0
T3
X47.7Y-68.33
X47.7Y-85.75
X47.7Y-103.475
X50.2Y-68.33
X50.2Y-85.75
X50.2Y-103.475
X52.7Y-68.33
X52.7Y-85.75
X52.7Y-103.475
X58.975Y-123.42
X58.975Y-125.96
X58.975Y-128.5
X58.975Y-131.04
X58.975Y-133.58
X61.515Y-123.42
X61.515Y-125.96
X61.515Y-128.5
X61.515Y-131.04
X61.515Y-133.58
X67.5Y-68.33
X67.5Y-85.75
X67.5Y-103.475
X70.0Y-68.33
X70.0Y-85.75
X70.0Y-103.475
X72.5Y-68.33
X72.5Y-85.75
X72.5Y-103.475
T5
X47.0Y-127.85
X73.5Y-127.85
T6
X47.0Y-130.95
X73.5Y-130.95
T7
X47.0Y-139.25
X73.5Y-139.25
T4
G00X45.4Y-61.18
M15
G01X45.4Y-60.48
M16
G05
G00X45.4Y-78.6
M15
G01X45.4Y-77.9
M16
G05
G00X45.4Y-96.325
M15
G01X45.4Y-95.625
M16
G05
G00X55.0Y-61.18
M15
G01X55.0Y-60.48
M16
G05
G00X55.0Y-78.6
M15
G01X55.0Y-77.9
M16
G05
G00X55.0Y-96.325
M15
G01X55.0Y-95.625
M16
G05
G00X65.2Y-61.18
M15
G01X65.2Y-60.48
M16
G05
G00X65.2Y-78.6
M15
G01X65.2Y-77.9
M16
G05
G00X65.2Y-96.325
M15
G01X65.2Y-95.625
M16
G05
G00X74.8Y-61.18
M15
G01X74.8Y-60.48
M16
G05
G00X74.8Y-78.6
M15
G01X74.8Y-77.9
M16
G05
G00X74.8Y-96.325
M15
G01X74.8Y-95.625
M16
G05
T8
G00X57.55Y-36.3
M15
G01X58.65Y-36.3
M16
G05
G00X57.55Y-41.0
M15
G01X58.65Y-41.0
M16
G05
G00X57.55Y-45.7
M15
G01X58.65Y-45.7
M16
G05
G00X62.35Y-36.3
M15
G01X63.45Y-36.3
M16
G05
G00X62.35Y-41.0
M15
G01X63.45Y-41.0
M16
G05
G00X62.35Y-45.7
M15
G01X63.45Y-45.7
M16
G05
M30
