%TF.GenerationSoftware,KiCad,Pcbnew,9.0.3+dfsg-1*%
%TF.CreationDate,2026-01-10T12:58:58+01:00*%
%TF.ProjectId,cv-switch,63762d73-7769-4746-9368-2e6b69636164,rev?*%
%TF.SameCoordinates,Original*%
%TF.FileFunction,Soldermask,Bot*%
%TF.FilePolarity,Negative*%
%FSLAX46Y46*%
G04 Gerber Fmt 4.6, Leading zero omitted, Abs format (unit mm)*
G04 Created by KiCad (PCBNEW 9.0.3+dfsg-1) date 2026-01-10 12:58:58*
%MOMM*%
%LPD*%
G01*
G04 APERTURE LIST*
G04 Aperture macros list*
%AMRoundRect*
0 Rectangle with rounded corners*
0 $1 Rounding radius*
0 $2 $3 $4 $5 $6 $7 $8 $9 X,Y pos of 4 corners*
0 Add a 4 corners polygon primitive as box body*
4,1,4,$2,$3,$4,$5,$6,$7,$8,$9,$2,$3,0*
0 Add four circle primitives for the rounded corners*
1,1,$1+$1,$2,$3*
1,1,$1+$1,$4,$5*
1,1,$1+$1,$6,$7*
1,1,$1+$1,$8,$9*
0 Add four rect primitives between the rounded corners*
20,1,$1+$1,$2,$3,$4,$5,0*
20,1,$1+$1,$4,$5,$6,$7,0*
20,1,$1+$1,$6,$7,$8,$9,0*
20,1,$1+$1,$8,$9,$2,$3,0*%
G04 Aperture macros list end*
%ADD10RoundRect,0.250000X-0.550000X0.550000X-0.550000X-0.550000X0.550000X-0.550000X0.550000X0.550000X0*%
%ADD11C,1.600000*%
%ADD12O,2.720000X3.240000*%
%ADD13R,1.800000X1.800000*%
%ADD14C,1.800000*%
%ADD15RoundRect,0.250000X-0.950000X-0.550000X0.950000X-0.550000X0.950000X0.550000X-0.950000X0.550000X0*%
%ADD16O,2.400000X1.600000*%
%ADD17RoundRect,0.250000X0.550000X-0.550000X0.550000X0.550000X-0.550000X0.550000X-0.550000X-0.550000X0*%
%ADD18RoundRect,0.250000X0.550000X-0.950000X0.550000X0.950000X-0.550000X0.950000X-0.550000X-0.950000X0*%
%ADD19O,1.600000X2.400000*%
%ADD20R,1.930000X1.830000*%
%ADD21C,2.130000*%
%ADD22O,4.000000X2.500000*%
%ADD23R,1.700000X1.700000*%
%ADD24C,1.700000*%
G04 APERTURE END LIST*
D10*
%TO.C,C5*%
X55000000Y-137500000D03*
D11*
X55000000Y-140000000D03*
%TD*%
D12*
%TO.C,RV6*%
X65200000Y-95975000D03*
X74800000Y-95975000D03*
D13*
X67500000Y-103475000D03*
D14*
X70000000Y-103475000D03*
X72500000Y-103475000D03*
%TD*%
D11*
%TO.C,R2*%
X43500000Y-117190000D03*
X43500000Y-124810000D03*
%TD*%
%TO.C,R6*%
X42000000Y-65310000D03*
X42000000Y-57690000D03*
%TD*%
%TO.C,R3*%
X59000000Y-78190000D03*
X59000000Y-85810000D03*
%TD*%
%TO.C,R4*%
X66500000Y-123690000D03*
X66500000Y-131310000D03*
%TD*%
D15*
%TO.C,U3*%
X56190000Y-110440000D03*
D16*
X56190000Y-112980000D03*
X56190000Y-115520000D03*
X56190000Y-118060000D03*
X63810000Y-118060000D03*
X63810000Y-115520000D03*
X63810000Y-112980000D03*
X63810000Y-110440000D03*
%TD*%
D17*
%TO.C,C3*%
X68000000Y-118000000D03*
D11*
X68000000Y-115500000D03*
%TD*%
D12*
%TO.C,RV4*%
X65200000Y-60830000D03*
X74800000Y-60830000D03*
D13*
X67500000Y-68330000D03*
D14*
X70000000Y-68330000D03*
X72500000Y-68330000D03*
%TD*%
D11*
%TO.C,C7*%
X43500000Y-35000000D03*
X48500000Y-35000000D03*
%TD*%
D12*
%TO.C,RV3*%
X45400000Y-95975000D03*
X55000000Y-95975000D03*
D13*
X47700000Y-103475000D03*
D14*
X50200000Y-103475000D03*
X52700000Y-103475000D03*
%TD*%
D12*
%TO.C,RV5*%
X65200000Y-78250000D03*
X74800000Y-78250000D03*
D13*
X67500000Y-85750000D03*
D14*
X70000000Y-85750000D03*
X72500000Y-85750000D03*
%TD*%
D17*
%TO.C,C6*%
X54500000Y-124500000D03*
D11*
X54500000Y-122000000D03*
%TD*%
%TO.C,C12*%
X48000000Y-118000000D03*
X53000000Y-118000000D03*
%TD*%
%TO.C,R1*%
X58500000Y-60880000D03*
X58500000Y-68500000D03*
%TD*%
%TO.C,R9*%
X62000000Y-78190000D03*
X62000000Y-85810000D03*
%TD*%
%TO.C,R12*%
X61500000Y-92190000D03*
X61500000Y-99810000D03*
%TD*%
D18*
%TO.C,U1*%
X43690000Y-47810000D03*
D19*
X46230000Y-47810000D03*
X48770000Y-47810000D03*
X51310000Y-47810000D03*
X51310000Y-40190000D03*
X48770000Y-40190000D03*
X46230000Y-40190000D03*
X43690000Y-40190000D03*
%TD*%
D11*
%TO.C,R7*%
X61500000Y-60880000D03*
X61500000Y-68500000D03*
%TD*%
%TO.C,C9*%
X67000000Y-110000000D03*
X72000000Y-110000000D03*
%TD*%
%TO.C,R11*%
X68500000Y-52120000D03*
X68500000Y-44500000D03*
%TD*%
D17*
%TO.C,C1*%
X50500000Y-113000000D03*
D11*
X50500000Y-110500000D03*
%TD*%
D12*
%TO.C,RV1*%
X45400000Y-60830000D03*
X55000000Y-60830000D03*
D13*
X47700000Y-68330000D03*
D14*
X50200000Y-68330000D03*
X52700000Y-68330000D03*
%TD*%
D20*
%TO.C,J1*%
X47000000Y-127850000D03*
D21*
X47000000Y-139250000D03*
X47000000Y-130950000D03*
%TD*%
D12*
%TO.C,RV2*%
X45400000Y-78250000D03*
X55000000Y-78250000D03*
D13*
X47700000Y-85750000D03*
D14*
X50200000Y-85750000D03*
X52700000Y-85750000D03*
%TD*%
D22*
%TO.C,SW1*%
X58100000Y-36300000D03*
X58100000Y-41000000D03*
X58100000Y-45700000D03*
X62900000Y-36300000D03*
X62900000Y-41000000D03*
X62900000Y-45700000D03*
%TD*%
D20*
%TO.C,J2*%
X73500000Y-127850000D03*
D21*
X73500000Y-139250000D03*
X73500000Y-130950000D03*
%TD*%
D11*
%TO.C,C10*%
X46500000Y-53000000D03*
X51500000Y-53000000D03*
%TD*%
%TO.C,R5*%
X58500000Y-92190000D03*
X58500000Y-99810000D03*
%TD*%
D23*
%TO.C,J3*%
X58975000Y-133580000D03*
D24*
X61515000Y-133580000D03*
X58975000Y-131040000D03*
X61515000Y-131040000D03*
X58975000Y-128500000D03*
X61515000Y-128500000D03*
X58975000Y-125960000D03*
X61515000Y-125960000D03*
X58975000Y-123420000D03*
X61515000Y-123420000D03*
%TD*%
M02*
