%TF.GenerationSoftware,KiCad,Pcbnew,9.0.3+dfsg-1*%
%TF.CreationDate,2026-01-10T13:10:41+01:00*%
%TF.ProjectId,cv-switch-panel,63762d73-7769-4746-9368-2d70616e656c,rev?*%
%TF.SameCoordinates,Original*%
%TF.FileFunction,Profile,NP*%
%FSLAX46Y46*%
G04 Gerber Fmt 4.6, Leading zero omitted, Abs format (unit mm)*
G04 Created by KiCad (PCBNEW 9.0.3+dfsg-1) date 2026-01-10 13:10:41*
%MOMM*%
%LPD*%
G01*
G04 APERTURE LIST*
%TA.AperFunction,Profile*%
%ADD10C,0.100000*%
%TD*%
G04 APERTURE END LIST*
D10*
X79075912Y-68314845D02*
G75*
G02*
X71875912Y-68314845I-3600000J0D01*
G01*
X71875912Y-68314845D02*
G75*
G02*
X79075912Y-68314845I3600000J0D01*
G01*
X79066184Y-103467089D02*
G75*
G02*
X71866184Y-103467089I-3600000J0D01*
G01*
X71866184Y-103467089D02*
G75*
G02*
X79066184Y-103467089I3600000J0D01*
G01*
X69078273Y-48500000D02*
G75*
G02*
X62878273Y-48500000I-3100000J0D01*
G01*
X62878273Y-48500000D02*
G75*
G02*
X69078273Y-48500000I3100000J0D01*
G01*
X59257273Y-68314845D02*
G75*
G02*
X52057273Y-68314845I-3600000J0D01*
G01*
X52057273Y-68314845D02*
G75*
G02*
X59257273Y-68314845I3600000J0D01*
G01*
X45478273Y-29500000D02*
X85778273Y-29500000D01*
X85778273Y-158000000D01*
X45478273Y-158000000D01*
X45478273Y-29500000D01*
X59283368Y-103476045D02*
G75*
G02*
X52083368Y-103476045I-3600000J0D01*
G01*
X52083368Y-103476045D02*
G75*
G02*
X59283368Y-103476045I3600000J0D01*
G01*
X59274413Y-85742080D02*
G75*
G02*
X52074413Y-85742080I-3600000J0D01*
G01*
X52074413Y-85742080D02*
G75*
G02*
X59274413Y-85742080I3600000J0D01*
G01*
X82000000Y-141786655D02*
G75*
G02*
X76000000Y-141786655I-3000000J0D01*
G01*
X76000000Y-141786655D02*
G75*
G02*
X82000000Y-141786655I3000000J0D01*
G01*
X55478273Y-141786655D02*
G75*
G02*
X49478273Y-141786655I-3000000J0D01*
G01*
X49478273Y-141786655D02*
G75*
G02*
X55478273Y-141786655I3000000J0D01*
G01*
X79080646Y-85742080D02*
G75*
G02*
X71880646Y-85742080I-3600000J0D01*
G01*
X71880646Y-85742080D02*
G75*
G02*
X79080646Y-85742080I3600000J0D01*
G01*
M02*
