M48
; DRILL file {KiCad 9.0.3+dfsg-1} date 2026-03-02T08:52:03+0100
; FORMAT={-:-/ absolute / metric / decimal}
; #@! TF.CreationDate,2026-03-02T08:52:03+01:00
; #@! TF.GenerationSoftware,Kicad,Pcbnew,9.0.3+dfsg-1
; #@! TF.FileFunction,NonPlated,1,2,NPTH
FMAT,2
METRIC
; #@! TA.AperFunction,NonPlated,NPTH,ComponentDrill
T1C3.200
; #@! TA.AperFunction,NonPlated,NPTH,ComponentDrill
T2C6.000
%
G90
G05
T1
X132.8Y-40.05
X156.8Y-162.05
T2
X135.3Y-58.03
X135.3Y-72.51
X135.3Y-96.51
X135.3Y-111.03
X135.3Y-135.248
X135.3Y-149.748
X144.8Y-58.03
X144.8Y-72.51
X144.8Y-96.51
X144.8Y-111.03
X144.8Y-135.248
X144.8Y-149.748
X154.3Y-58.03
X154.3Y-72.51
X154.3Y-96.51
X154.3Y-111.03
X154.3Y-135.248
X154.3Y-149.748
M30
